<?xml version="1.0" encoding="utf-8"?>
<!-- Generator: Adobe Illustrator 16.0.0, SVG Export Plug-In . SVG Version: 6.00 Build 0)  -->
<!DOCTYPE svg PUBLIC "-//W3C//DTD SVG 1.1//EN" "http://www.w3.org/Graphics/SVG/1.1/DTD/svg11.dtd">
<svg version="1.1"
	 id="svg6520" xmlns:dc="http://purl.org/dc/elements/1.1/" xmlns:cc="http://creativecommons.org/ns#" xmlns:rdf="http://www.w3.org/1999/02/22-rdf-syntax-ns#" xmlns:svg="http://www.w3.org/2000/svg" xmlns:sodipodi="http://sodipodi.sourceforge.net/DTD/sodipodi-0.dtd" xmlns:inkscape="http://www.inkscape.org/namespaces/inkscape" inkscape:output_extension="org.inkscape.output.svg.inkscape" sodipodi:docname="Florida_Presidential_Election_Results_by_County,_2008[1].svg" inkscape:version="0.48.1 " sodipodi:version="0.32"
	 xmlns="http://www.w3.org/2000/svg" xmlns:xlink="http://www.w3.org/1999/xlink" x="0px" y="0px" width="322.665px"
	 height="285.816px" viewBox="0 0 322.665 285.816" enable-background="new 0 0 322.665 285.816" xml:space="preserve">
<defs>
	
	
		<inkscape:perspective  id="perspective6528" inkscape:vp_z="744.09448 : 526.18109 : 1" inkscape:vp_y="0 : 1000 : 0" inkscape:vp_x="0 : 526.18109 : 1" sodipodi:type="inkscape:persp3d" inkscape:persp3d-origin="372.04724 : 350.78739 : 1">
		</inkscape:perspective>
</defs>
<sodipodi:namedview  showgrid="false" inkscape:cy="150.18949" inkscape:cx="164.69054" inkscape:zoom="1.4508979" objecttolerance="10" guidetolerance="10" gridtolerance="10000" borderopacity="1.0" bordercolor="#666666" pagecolor="#ffffff" id="base" inkscape:window-maximized="0" inkscape:window-y="-4" inkscape:window-x="-4" inkscape:window-height="721" inkscape:window-width="1024" inkscape:current-layer="layer1" inkscape:document-units="px" inkscape:pageshadow="2" inkscape:pageopacity="0.0">
	</sodipodi:namedview>
<g id="layer1" transform="translate(-320.68149,-376.2632)" inkscape:label="Layer 1" inkscape:groupmode="layer">
	<path id="FL_Bay" inkscape:label="Bay, FL" fill="#999999" stroke="#FFFFFF" stroke-width="1.039" d="M414.498,404.862
		l0.679,15.945l0.714,12.065l-3.857-1.412l-0.833-0.4l-0.264-0.195l-0.994-0.796l-1.241-1.278l-7.985-5.252l-0.587-0.366
		l-0.416-0.268l-0.396-0.253l-0.641-0.359l-1.387-0.811l-0.583-0.325l-0.474-0.257l-0.568-0.273l-0.682-0.364l-0.61-0.258
		l-2.21-0.953l-0.148-5.255l0.984-0.969l4.142-1.524l11.483-0.456l2.284-0.119l-0.243-5.685l1.917-0.106L414.498,404.862"/>
	<path id="FL_Jackson" inkscape:label="Jackson, FL" fill="#999999" stroke="#FFFFFF" stroke-width="1.039" d="M409.569,386.301
		l18.146-1.176l5.911,12.293l-2.27,4.735l-6.182,0.323l-2.764,1.836l-2.865,0.31l-5.047,0.238l-1.915,0.075l-0.411-9.506
		l-2.791-1.783l-3.589,0.154l3.4-7.458L409.569,386.301"/>
	<path id="FL_Charlotte" inkscape:label="Charlotte, FL" fill="#999999" stroke="#FFFFFF" stroke-width="1.039" d="M553.182,548.835
		l19.33-1.858l0.951,11.372l-19.429,1.779l0.147-1.396l-0.292-2.42l-0.495-3.441l-0.108-0.479l-0.55-0.309l-1.229,0.146
		l-0.347,0.178l-1.925,1.518l-0.21,0.29l0.545,6.058l-0.119,0.181l-1.689,0.179l-0.424-0.428l-0.105-0.006l-0.268,0.402
		l-0.294,0.829l-0.532-0.003l-0.149-0.605l-0.151-0.572l-0.082-0.174l-0.015-0.031l-4.673-6.387l4.705-0.39l-0.207-2.581
		l-0.112-1.201L553.182,548.835"/>
	<path id="FL_Lee" inkscape:label="Lee, FL" fill="#999999" stroke="#FFFFFF" stroke-width="1.039" d="M546.68,563.69l3.86,8.383
		l0.493,0.518l0.705,0.453l2.482,0.752l0.408-0.51l0.553-0.228l1.987,0.509l-0.005,0.088l-1.834,1.336l-0.451,0.191l-0.307,0.023
		l-0.61-0.074l-1.173-0.389l-1.932-1.182l-0.178-0.163l-0.17-0.176l-0.277-0.556l-3.607-7.648L546.68,563.69 M554.035,560.128
		l19.429-1.779l1.152,11.027l0.439,3.896l-3.333,4.877l-6.343,0.65l-1.09-0.469l-1.125-2.025l-1.875-1.941l-4.148-3.004l-3.91-6.615
		L554.035,560.128"/>
	<path id="FL_Hendry" inkscape:label="Hendry, FL" fill="#999999" stroke="#FFFFFF" stroke-width="1.039" d="M573.463,558.349
		l15.453-1.457l8.865-0.918l1.5-8.424l2.951,26.876l0.367,3.187l-15.273,1.814l-0.843-7.268l-0.415-4.062l-11.453,1.278
		L573.463,558.349"/>
	<path id="FL_Collier" inkscape:label="Collier, FL" fill="#999999" stroke="#FFFFFF" stroke-width="1.039" d="M602.6,577.612
		l1.512,11.998l0.774,7.453l-18.649,1.989l-0.243-0.563l-0.172-0.207l-1.776-1.129l-0.965-0.465l-0.285-0.107l-3.754-1.023
		l-0.471-0.025l-4.604,0.592l-0.383,0.227l-0.345,0.381l-0.069,0.454l-0.154,0.815l-0.179,0.514l-0.272-0.047l-0.204-0.229
		l-2.286-3.648l-3.1-6.046l-0.326-1.628l-0.209-1.098l-0.809-3.592l-0.718-2.443l-0.581-1.377l-0.043-0.076l1.09,0.469l6.343-0.65
		l3.333-4.877l-0.439-3.896l11.453-1.278l0.415,4.062l0.843,7.268L602.6,577.612"/>
	
		<path id="FL_Monroe" inkscape:label="Monroe, FL" sodipodi:nodetypes="ccccccccccccccccccccccccc" fill="#999999" stroke="#FFFFFF" stroke-width="1.039" d="
		M604.886,597.063l1.942,18.939l1.367,7.278l0.38,0.615l0.03,0.019l-2.49,1.787l-3.241,1.076l-3.202,0.566l-0.621-0.297
		l-1.682-1.102l-0.334-0.298l-1.491-2.375l-0.048-1.015l0.169-1.918l0.253-1.529l0.115-0.36l0.283-0.397l0.234-0.109l0.512,0.134
		l0.104-0.282l-0.003-0.428l-2.511-4.455l-4.129-7.133l-4.287-6.728L604.886,597.063"/>
	<path id="FL_Miami-Dade" inkscape:label="Miami-Dade, FL" fill="#999999" stroke="#FFFFFF" stroke-width="1.039" d="
		M631.979,614.099l-0.902-0.245l0.527-1.993l1.773-4.933l0.322-0.519l0.182,0.011l0.207,1.512l-0.867,3.165L631.979,614.099
		 M604.112,589.61l3.816-0.381l3.916,0.543l9.492-1.01l5.685-0.9l1.233-0.467l1.281-0.189l1.539-0.201l2.883-0.408l0.031,0.113
		l0.256,2.432l0.277,3.213l0.02,0.995l-0.018,1.984l-0.271,0.979l-0.213,0.436l-0.824,0.609l-0.303-0.36l-0.504-0.27l-0.508,0.114
		l-1.184,0.633l-0.41,0.407l-0.123,0.329l-2.484,8.256l-0.26,1.469l0.098,0.898l0.906,3.396l0.246,0.259l0.412,0.023l0.172,0.228
		l-0.09,0.479l-0.836,1.593l-1.79,2.376l-0.097,0.097l-1.102,1.105l-2.331,2.285l-5.231,2.26l-1.165,0.484l-1.546,0.34l-2.529,0.303
		l-3.951-0.148l-0.03-0.019l-0.38-0.615l-1.367-7.278l-1.942-18.939L604.112,589.61"/>
	<path id="FL_Broward" inkscape:label="Broward, FL" fill="#999999" stroke="#FFFFFF" stroke-width="1.039" d="M602.233,574.426
		l22.946-2.474l1.878-0.195l6.941-0.189l-0.041,15.029l-2.883,0.408l-1.539,0.201l-1.281,0.189l-1.233,0.467l-5.685,0.9l-9.492,1.01
		l-3.916-0.543l-3.816,0.381l-1.512-11.998L602.233,574.426"/>
	<path id="FL_Palm_Beach" inkscape:label="Palm Beach, FL" fill="#999999" stroke="#FFFFFF" stroke-width="1.039" d="
		M599.282,547.55l19.573-2.049l0.399-0.039l9.082-0.91l2.367-0.871l0.602,1.548l0.658,1.646l0.572,1.451l0.877,2.633l0.412,4.109
		l0.318,3.809l0.082,1.871l-0.131,10.137l-0.096,0.684l-6.941,0.189l-1.878,0.195l-22.946,2.474L599.282,547.55"/>
	<path id="FL_Sarasota" inkscape:label="Sarasota, FL" fill="#999999" stroke="#FFFFFF" stroke-width="1.039" d="M552.534,541.261
		l0.648,7.574l-7.728,0.65l0.112,1.201l0.207,2.581l-4.705,0.39l-6.301-10.814l-0.377-0.592l-0.541-0.818l-0.333-0.531l-1.621-2.246
		l-0.932-1.058l-1.956-2.194l15.219-1.16l0.627,7.654L552.534,541.261"/>
	<path id="FL_Desoto" inkscape:label="Desoto, FL" fill="#999999" stroke="#FFFFFF" stroke-width="1.039" d="M571.213,533.728
		l1.299,13.249l-19.33,1.858l-1.123-13.2l7.67-0.64l4.238-0.542L571.213,533.728"/>
	<path id="FL_Glades" inkscape:label="Glades, FL" fill="#999999" stroke="#FFFFFF" stroke-width="1.039" d="M595.92,536.94
		l3.361,10.609l-1.5,8.424l-8.865,0.918l-15.453,1.457l-0.951-11.372l11.55-1.079l-0.399-3.817l3.469-4.21L595.92,536.94"/>
	<path id="FL_Martin" inkscape:label="Martin, FL" fill="#999999" stroke="#FFFFFF" stroke-width="1.039" d="M624.641,531.606
		l6.063,12.074l-2.367,0.871l-9.082,0.91l-0.399,0.039l-19.573,2.049l6.998-11.475l10.199-1.094l5.08-0.553l-0.243-2.477
		L624.641,531.606"/>
	<path id="FL_St._Lucie" inkscape:label="St. Lucie, FL" fill="#999999" stroke="#FFFFFF" stroke-width="1.039" d="M604.61,520.899
		l13.893-1.454l6.139,12.161l-3.325,0.346l0.243,2.477l-5.08,0.553l-10.199,1.094L604.61,520.899"/>
	<path id="FL_Indian_River" inkscape:label="Indian River, FL" fill="#999999" stroke="#FFFFFF" stroke-width="1.039" d="
		M596.094,510.261l13.907-1.432l2.005-1.662l0.215-0.263l6.281,12.542l-13.893,1.454l-3.789,0.383l-0.401-3.647l-3.696,0.416
		L596.094,510.261"/>
	<path id="FL_Okeechobee" inkscape:label="Okeechobee, FL" fill="#999999" stroke="#FFFFFF" stroke-width="1.039" d="
		M586.293,519.085l10.43-1.034l3.696-0.416l0.401,3.647l3.789-0.383l1.67,15.176l-6.998,11.475l-3.361-10.609l-3.11-3.475
		l-3.673-3.18l-3.824-7.4L586.293,519.085"/>
	<path id="FL_Highlands" inkscape:label="Highlands, FL" fill="#999999" stroke="#FFFFFF" stroke-width="1.039" d="M569.952,520.532
		l16.342-1.447l-0.98,3.8l3.824,7.4l3.673,3.18l3.11,3.475l-8.789,0.93l-3.469,4.21l0.399,3.817l-11.55,1.079l-1.299-13.249
		L569.952,520.532"/>
	<path id="FL_Hardee" inkscape:label="Hardee, FL" fill="#999999" stroke="#FFFFFF" stroke-width="1.039" d="M550.912,522.323
		l19.039-1.791l1.262,13.195l-7.246,0.726l-4.238,0.542l-7.67,0.64L550.912,522.323"/>
	<path id="FL_Manatee" inkscape:label="Manatee, FL" fill="#999999" stroke="#FFFFFF" stroke-width="1.039" d="M531.508,524.091
		l19.404-1.768l1.146,13.312l0.475,5.626l-7.68,0.637l-0.627-7.654l-15.219,1.16l-2.082-2.197l-1.107-2.344l1.035-0.413l1.363-0.782
		l2.786-3.955l0.171-0.313L531.508,524.091"/>
	<path id="FL_Pinellas" inkscape:label="Pinellas, FL" fill="#999999" stroke="#FFFFFF" stroke-width="1.039" d="M525.821,501.574
		l0.871,8.938l-2.618,0.568l-0.143,0.118l-0.11,0.34l0.199,0.503l0.426,0.313l4.063,2.048l1.594-0.579l0.135,1.107l-0.606,1.85
		l-3.682,8.054l-1.79-2.813l-3.557-10.647l0.032-0.09l0.31-2.246l0.22-1.959l-0.19-3.116l-0.278-0.732l-0.183-0.306l-0.63-0.816
		L525.821,501.574"/>
	<path id="FL_Hillsborough" inkscape:label="Hillsborough, FL" fill="#999999" stroke="#FFFFFF" stroke-width="1.039" d="
		M525.821,501.574l21.044-1.77l1.917-0.167l1.289,13.245l0.842,9.441l-19.404,1.768l4.2-5.561l0.084-0.165l0.974-2.029l0.258-1.102
		l-0.519-1.926l-0.507-0.758l-5.663-2.373l-1.388-0.062l-1.156,0.152l-1.1,0.243L525.821,501.574"/>
	<path id="FL_Hernando" inkscape:label="Hernando, FL" fill="#999999" stroke="#FFFFFF" stroke-width="1.039" d="M524.112,478.993
		l8.729-0.767l0.133,1.247l5.936-0.599l0.029,0.86l0.479,0.733l1.441,1.809l0.766,0.519l4.834,1.491l1.166,2.072l-7.631,0.672
		l0.168,1.894l-14.865,1.347l-1.478,0.13L524.112,478.993"/>
	<path id="FL_Pasco" inkscape:label="Pasco, FL" fill="#999999" stroke="#FFFFFF" stroke-width="1.039" d="M547.623,486.356
		l0.615,7.206l-1.374,6.242l-21.044,1.77l-5.938,0.534l3.936-11.708l1.478-0.13l14.865-1.347l-0.168-1.894L547.623,486.356"/>
	<path id="FL_Osceola" inkscape:label="Osceola, FL" fill="#999999" stroke="#FFFFFF" stroke-width="1.039" d="M563.443,490.615
		l30.533-3.036l0.505,4.355l0.674,6.985l-0.246,0.034l1.186,11.307l0.629,7.791l-10.43,1.034l-0.249-1.541l-0.214-1.088
		l-1.818-3.069l-1.049-1.692l-8.057-8.257l-2.594-2.261l-8.508-6.765L563.443,490.615"/>
	<path id="FL_Polk" inkscape:label="Polk, FL" fill="#999999" stroke="#FFFFFF" stroke-width="1.039" d="M563.443,490.615
		l0.362,3.798l8.508,6.765l2.594,2.261l8.057,8.257l1.049,1.692l1.818,3.069l0.214,1.088l0.249,1.541l-16.342,1.447l-19.039,1.791
		l-0.842-9.441l-1.289-13.245l-1.917,0.167l1.374-6.242l3.643-1.78L563.443,490.615"/>
	<path id="FL_Orange" inkscape:label="Orandge, FL" fill="#999999" stroke="#FFFFFF" stroke-width="1.039" d="M570.957,470.75
		l-1.424,3.456l0.084,0.972l1.885,1.861l3.662,0.96l12.867-1.416l5.944,10.996l-30.533,3.036l-1.828-18.674l0.388-0.328l0.371-0.061
		l0.538-0.041L570.957,470.75"/>
	<path id="FL_Seminole" inkscape:label="Seminole, FL" fill="#999999" stroke="#FFFFFF" stroke-width="1.039" d="M570.957,470.75
		l1.398-4.228l1.982,1.744l4.863,1.391l0.797,0.188l0.232-0.018l1.285-0.528l0.427-0.831l2.673,2.506l1.162,1.644l2.254,3.966
		L575.164,478l-3.662-0.96l-1.885-1.861l-0.084-0.972L570.957,470.75"/>
	<path id="FL_Lake" inkscape:label="Lake FL" fill="#999999" stroke="#FFFFFF" stroke-width="1.039" d="M560.205,450.296
		l6.587,7.407l2.472,1.85l1.548,0.96l1.472,1.274l0.085,0.13l0.335,2.252l-0.348,2.353l-1.398,4.228l-8.046,0.761l-0.538,0.041
		l-0.371,0.061l-0.388,0.328l1.828,18.674l-11.562,1.167l-2.302-26.636l11.29-1.06l0.326-4.512L560.205,450.296"/>
	<path id="FL_Sumter" inkscape:label="Sumter, FL" fill="#999999" stroke="#FFFFFF" stroke-width="1.039" d="M535.928,466.365
		l13.651-1.219l2.302,26.636l-3.643,1.78l-0.615-7.206l-1.166-2.072l-4.834-1.491l-0.766-0.519l-1.441-1.809l-0.479-0.733
		l-0.029-0.86l0.272-1.882l0.161-0.388l0.52-0.795l0.82-0.992l0.714-0.146l0.144-0.127l0.477-1.365l-0.02-0.185l-4.577-4.602
		L535.928,466.365"/>
	<path id="FL_Citrus" inkscape:label="Citrus, FL" fill="#999999" stroke="#FFFFFF" stroke-width="1.039" d="M527.051,463.445
		l8.877,2.92l1.491,2.025l4.577,4.602l0.02,0.185l-0.477,1.365l-0.144,0.127l-0.714,0.146l-0.82,0.992l-0.52,0.795l-0.161,0.388
		l-0.272,1.882l-5.936,0.599l-0.133-1.247l-8.729,0.767l-0.262-6.49l-0.165-1.415l-0.23-0.549l-4.813-4.14l0.279-0.443l0.412-0.438
		l1.045-0.905l0.729-0.143l0.577,0.05l2.317,0.664l2.318-1.196l0.697-0.453L527.051,463.445"/>
	<path id="FL_Levy" inkscape:label="Levy, FL" fill="#999999" stroke="#FFFFFF" stroke-width="1.039" d="M520.531,441.268
		l9.794,2.66l1.146,11.675l-5.055,0.465l0.635,7.377l-0.035,0.089l-0.697,0.453L524,465.184l-2.317-0.664l-0.577-0.05l-0.729,0.143
		l-1.045,0.905l-0.412,0.438l-0.279,0.443l0.157-1.458l-0.327-1.183l-2.063-3.866l-0.895-0.448l-13.367-4.606l3.202-2.545
		l1.781-2.821l0.978-2.714l1.672-5.75L520.531,441.268"/>
	<path id="FL_Marion" inkscape:label="Marion, FL" fill="#999999" stroke="#FFFFFF" stroke-width="1.039" d="M530.325,443.928
		l6.824-0.576l0.643,0.8l-0.104,0.466l2.709,1.378l2.87-1.013l0.505-0.28l0.035-0.093l-0.121-1.286l1.037-1.105l0.818-0.382
		l2.619-0.863l6.08,0.679l0.931,2.456l1.749,2.389l1.604,1.883l1.682,1.917l0.99,9.277l-0.326,4.512l-11.29,1.06l-13.651,1.219
		l-8.877-2.92l-0.635-7.377l5.055-0.465L530.325,443.928"/>
	<path id="FL_Volusia" inkscape:label="Volusia, FL" fill="#999999" stroke="#FFFFFF" stroke-width="1.039" d="M558.524,448.379
		l9.077-4.111l0.614,0.955l0.598,4.944l3.186-0.353l0.154-0.025l6.809-0.838l-0.606-4.717l1.746-2.44l2.605,4.953l2.122,3.714
		l1.639,2.893l0.997,1.522l2.97,4.088l6.568,8.902l-9.006,0.979l0.914,7.634l-0.879,0.106l-2.254-3.966l-1.162-1.644l-2.673-2.506
		l-0.427,0.831l-1.285,0.528l-0.232,0.018l-0.797-0.188l-4.863-1.391l-1.982-1.744l0.348-2.353l-0.335-2.252l-0.085-0.13
		l-1.472-1.274l-1.548-0.96l-2.472-1.85l-6.587-7.407L558.524,448.379"/>
	<path id="FL_Brevard" inkscape:label="Brevard, FL" fill="#999999" stroke="#FFFFFF" stroke-width="1.039" d="M588.032,476.583
		l0.879-0.106l-0.914-7.634l9.006-0.979l6.549,7.771l0.07,0.096l0.28,0.318l0.048,0.098l2.492,5.221l-0.02,0.352l-1.328,0.75
		l-0.38,0.467l-0.454,0.786l-0.043,0.211l-0.023,0.046l-0.158,0.646l-0.155,1.186l-0.007,1.211l0.061,1.086l0.402,2.304l0.912,3.384
		l1.293,3.457l0.928,1.942l0.764,1.333l1.033,1.789l0.058,0.108l2.897,4.477l-0.215,0.263l-2.005,1.662l-13.907,1.432l-1.186-11.307
		l0.246-0.034l-0.674-6.985l-0.505-4.355L588.032,476.583"/>
	<path id="FL_Washington" inkscape:label="Washington, FL" fill="#999999" stroke="#FFFFFF" stroke-width="1.039" d="
		M396.903,399.831l0.39-2.886l0.269-0.979l2.622-0.096l0.652,0.604l0.04,1.271l4.398-0.119l0.565-2.979l0.021-0.372l-0.068-0.472
		l3.589-0.154l2.791,1.783l0.411,9.506l-1.917,0.106l0.243,5.685l-2.284,0.119l-11.483,0.456L393,412.827l-0.984,0.969l1.499-2.501
		l1.652-6.253l-0.555-0.69l-0.104-1.336l1.902-2.914L396.903,399.831"/>
	<path id="FL_Holmes" inkscape:label="Holmes, FL" fill="#999999" stroke="#FFFFFF" stroke-width="1.039" d="M389.139,387.524
		l20.053-1.18l-3.4,7.458l0.068,0.472l-0.021,0.372l-0.565,2.979l-4.398,0.119l-0.04-1.271l-0.652-0.604l-2.622,0.096l-0.269,0.979
		l-0.39,2.886l-7.235,0.298L389.139,387.524"/>
	<path id="FL_Walton" inkscape:label="Walton, FL" fill="#999999" stroke="#FFFFFF" stroke-width="1.039" d="M383.448,387.767
		l5.691-0.243l0.528,12.604l7.235-0.298l-0.494,0.271l-1.902,2.914l0.104,1.336l0.555,0.69l-1.652,6.253l-1.499,2.501l0.148,5.255
		l-15.376-4.064l-0.87-26.881L383.448,387.767"/>
	<path id="FL_Okaloosa" inkscape:label="Okaloosa, FL" fill="#999999" stroke="#FFFFFF" stroke-width="1.039" d="M375.918,388.106
		l0.87,26.881l-15.19,0.291l-0.529-26.662l3.595-0.069L375.918,388.106"/>
	<path id="FL_Santa_Rosa" inkscape:label="Santa Rosa, FL" fill="#999999" stroke="#FFFFFF" stroke-width="1.039" d="
		M346.968,389.076l14.1-0.46l0.529,26.662l-4.451,0.879l-6.156,0.647l-2.692-1.849l-4.234-8.818l-1.662-4.716l-0.49-1.599
		l-0.081-0.728l-0.273-3.287l0.155-0.632l0.846-2.542l0.29-0.438l1.754-1.374L346.968,389.076"/>
	<path id="FL_Escambia" inkscape:label="Escambia, FL" fill="#999999" stroke="#FFFFFF" stroke-width="1.039" d="M330.659,389.701
		l16.309-0.625l-2.366,1.744l-1.754,1.374l-0.29,0.438l-0.846,2.542l-0.155,0.632l0.273,3.287l0.081,0.728l0.49,1.599l1.662,4.716
		l4.234,8.818l2.692,1.849l6.156-0.647l-8.83,2.21l-0.329,0.06l-0.23,0.045l-1.345,0.264l-0.889,0.119l-1.423,0.195l-5.914,1.058
		l-3.49,0.797l2.47-0.95l0.773-4.742l0.916-9.509l-0.02-0.721l-0.106-0.525l-0.415-0.773l-1.619-1.133l-1.229-0.725l-0.62-0.144
		l-0.205-0.09l-1.148-0.889l-3.563-4.352l-0.444-0.86L330.659,389.701"/>
	<path id="FL_Calhoun" inkscape:label="Calhoun, FL" fill="#999999" stroke="#FFFFFF" stroke-width="1.039" d="M414.498,404.862
		l5.047-0.238l2.865-0.31l2.764-1.836l6.182-0.323l-2.013,3.973l-1.705,7.975l-2.124,6.173l-10.337,0.533L414.498,404.862"/>
	<path id="FL_Gulf" inkscape:label="Gulf, FL" fill="#999999" stroke="#FFFFFF" stroke-width="1.039" d="M415.178,420.807
		l10.337-0.533l3.995,9.751l0.108,5.959l-2.226,2.827l-0.557-0.123l-3.51,3.077l-0.394,0.724l-3.569,0.091l0.14-4.35l-0.082-0.479
		l-0.509-0.962l-2.027-2.874l-0.854-0.914l-0.139-0.13L415.178,420.807"/>
	<path id="FL_Franklin" inkscape:label="Franklin, FL" fill="#999999" stroke="#FFFFFF" stroke-width="1.039" d="M447.568,427.192
		l7.843,1.685l0.231,0.773l0.085,0.419l0.073,0.326l0.01,0.062l-0.062,0.485l-0.248,0.601l-0.204,0.124l-1.113,0.243l-1.726-0.325
		l-0.407-0.114l-0.387-0.297l-0.34-0.647l-2.241,0.682l-0.892,0.35l-5.68,3.898l-2.586,1.921l-2.238,1.465l-2.121,1.194
		l-4.171,1.082l-1.655,0.277l-1.342-0.279l-1.121,0.076l-0.747,0.175l-3.6,1.124l0.394-0.724l3.51-3.077l0.557,0.123l2.226-2.827
		l-0.108-5.959l0.565-1.889L447.568,427.192"/>
	<path id="FL_Dixie" inkscape:label="Dixie, FL" fill="#999999" stroke="#FFFFFF" stroke-width="1.039" d="M509.604,430.826
		l0.176,10.182l-1.672,5.75l-0.978,2.714l-1.781,2.821l-3.202,2.545l-0.549-2.403l-1.204-2.07l-0.688-1.094l-0.889-0.481l-0.9-0.051
		l-1.724-0.905l-2.888-1.693l-0.842-0.536l-0.078-0.249l-0.863-6.168l3.002-7.083L509.604,430.826"/>
	<path id="FL_Gilchrist" inkscape:label="Gilchrist, FL" fill="#999999" stroke="#FFFFFF" stroke-width="1.039" d="M510.909,427.974
		l2.85-2.218l5.725,3.992l1.048,11.521l-10.751-0.26l-0.176-10.182L510.909,427.974"/>
	<path id="FL_Alachua" inkscape:label="Alachua, FL" fill="#999999" stroke="#FFFFFF" stroke-width="1.039" d="M523.957,424.505
		l4.242,0.426l0.969,1.538l0.387,0.165l4.729,1.074l2.096-0.034l0.44-0.22l0.249-0.033l1.742,0.281l0.527,0.169l3.161,3.345
		l0.364,0.879l-0.092,0.497l0.914,10.732l0.121,1.286l-0.035,0.093l-0.505,0.28l-2.87,1.013l-2.709-1.378l0.104-0.466l-0.643-0.8
		l-6.824,0.576l-9.794-2.66l-1.048-11.521L523.957,424.505"/>
	<path id="FL_Putnam" inkscape:label="Putnam, FL" fill="#999999" stroke="#FFFFFF" stroke-width="1.039" d="M560.188,425.683
		l3.078,9.211l4.335,9.374l-9.077,4.111l-1.604-1.883l-1.749-2.389l-0.931-2.456l-6.08-0.679l-2.619,0.863l-0.818,0.382
		l-1.037,1.105l-0.914-10.732l0.201-0.02l0.925-0.402l3.478-2.197l0.209-0.765l0.275-0.297l3.582-2.269l0.588-0.059L560.188,425.683
		"/>
	<path id="FL_Flagler" inkscape:label="Flagler, FL" fill="#999999" stroke="#FFFFFF" stroke-width="1.039" d="M563.266,434.895
		l11.563-3.248l5.272,10.146l-1.746,2.44l0.606,4.717l-6.809,0.838l-0.154,0.025l-3.186,0.353l-0.598-4.944l-0.614-0.955
		L563.266,434.895"/>
	<path id="FL_St._Johns" inkscape:label="St. Johns, FL" fill="#999999" stroke="#FFFFFF" stroke-width="1.039" d="M555.275,413.809
		l2.081-0.738l0.863,0.048l2.455,0.933l3.959-0.448l-0.744-6.375l2.143-0.239l3.878,12.05l2.77,7.82l0.053,0.146l0.419,0.998
		l0.309,0.781l1.369,2.863l-11.563,3.248l-3.078-9.211L555.275,413.809"/>
	<path id="FL_Clay" inkscape:label="Clay, FL" fill="#999999" stroke="#FFFFFF" stroke-width="1.039" d="M555.275,413.809
		l4.913,11.874l-8.158,0.901l-0.588,0.059l-3.582,2.269l-0.275,0.297l-0.209,0.765l-3.478,2.197l-0.925,0.402l-1.683-18.435
		l-0.168-1.894l3.782-0.336l7.879-0.855l1.051-0.171l1.18-0.086L555.275,413.809"/>
	<path id="FL_Bradford" inkscape:label="Bradford, FL" fill="#999999" stroke="#FFFFFF" stroke-width="1.039" d="M537.786,414.458
		l3.504-0.321l1.683,18.435l-0.201,0.02l0.092-0.497l-0.364-0.879l-3.161-3.345l-0.527-0.169l-1.742-0.281l-0.249,0.033l-0.44,0.22
		l-2.096,0.034l-4.729-1.074l-0.387-0.165l-0.969-1.538l1.676-0.652l2.437-1.148l4.356-5.46l1.24-2.115l0.101-0.47L537.786,414.458"
		/>
	<path id="FL_Union" inkscape:label="Union, FL" fill="#999999" stroke="#FFFFFF" stroke-width="1.039" d="M537.786,414.458
		l0.223,0.627l-0.101,0.47l-1.24,2.115l-4.356,5.46l-2.437,1.148l-1.676,0.652l-4.242-0.426l1.957-8.714L537.786,414.458"/>
	<path id="FL_Suwannee" inkscape:label="Suwannee, FL" fill="#999999" stroke="#FFFFFF" stroke-width="1.039" d="M512.518,408.157
		l1.24,17.599l-2.85,2.218l-2.175-2.898l-1.367-1.516l-0.601-0.492l-3.7-2.686l-1.735-0.94l-1.867-0.305l-0.176,0.421l-0.604,0.346
		l-1.146-0.33l-0.467-0.386l-1.165-3.175l-0.361-2.848l0.047-0.231l0.158-0.096l2.445-5.642l0.378-1.282l0.114-0.16l1.189-0.761
		l1.43-0.377l2.998,0.23l1.874,0.472L512.518,408.157"/>
	<path id="FL_Lafayette" inkscape:label="Lafayette, FL" fill="#999999" stroke="#FFFFFF" stroke-width="1.039" d="M495.75,412.838
		l-0.158,0.096l-0.047,0.231l0.361,2.848l1.165,3.175l0.467,0.386l1.146,0.33l0.604-0.346l0.176-0.421l1.867,0.305l1.735,0.94
		l3.7,2.686l0.601,0.492l1.367,1.516l2.175,2.898l-1.305,2.852l-15.08,1.278l-1.275,0.114l-0.925-3.161l-1.077-15.859
		L495.75,412.838"/>
	<path id="FL_Taylor" inkscape:label="Taylor, FL" fill="#999999" stroke="#FFFFFF" stroke-width="1.039" d="M491.246,413.198
		l1.077,15.859l0.925,3.161l1.275-0.114l-3.002,7.083l-1.281-0.398l-3.673-1.731l-0.393-0.378l-0.329-0.429l-1.205-1.86l0.025-0.209
		l-0.214-0.84l-0.406-0.681l-1.809-2.41l-1.652-1.288l-0.296-0.217l-4.033-2.03l-2.204-0.766l-3.417-1.771l-2.361-1.572
		l5.781-10.015l13.211-1.009l0.127,1.915L491.246,413.198"/>
	<path id="FL_Wakulla" inkscape:label="Wakulla, FL" fill="#999999" stroke="#FFFFFF" stroke-width="1.039" d="M440.423,414.999
		l17.527-1.278l0.327,1.243l6.247-0.397l0.509,7.763l-6.394,0.545l-3.558,1.514l-0.61,0.288l-0.175,1.47l0.26,1.593l0.084,0.124
		l0.771,1.014l-7.843-1.685l-2.378-1.586l-1.137-0.893l-1.502-2.196l-2.969-5.964l0.333-1.02L440.423,414.999"/>
	<path id="FL_Liberty" inkscape:label="Liberty, FL" fill="#999999" stroke="#FFFFFF" stroke-width="1.039" d="M442.699,410.993
		l-2.276,4.005l-0.508,0.535l-0.333,1.02l2.969,5.964l1.502,2.196l1.137,0.893l2.378,1.586l-17.494,0.944l-0.565,1.889l-3.995-9.751
		l2.124-6.173l1.705-7.975l2.013-3.973L442.699,410.993"/>
	<path id="FL_Gadsden" inkscape:label="Gadsden, FL" fill="#999999" stroke="#FFFFFF" stroke-width="1.039" d="M451.824,397.223
		l3.753-0.05l-1.758,4.031l-2.007,5.025l-0.193,0.359l-0.576,0.456l-0.779,0.275l-5.143,2.249l-2.422,1.424l-11.343-8.839
		l2.27-4.735l0.047,0.003L451.824,397.223"/>
	<path id="FL_Leon" inkscape:label="Leon, FL" fill="#999999" stroke="#FFFFFF" stroke-width="1.039" d="M465.879,397.038
		l-0.819,6.636l-1,3.891l0.463,7l-6.247,0.397l-0.327-1.243l-17.527,1.278l2.276-4.005l2.422-1.424l5.143-2.249l0.779-0.275
		l0.576-0.456l0.193-0.359l2.007-5.025l1.758-4.031l7.428-0.104L465.879,397.038"/>
	<path id="FL_Jefferson" inkscape:label="Jefferson, FL" fill="#999999" stroke="#FFFFFF" stroke-width="1.039" d="M475.799,396.922
		l4.975-0.042l0.306,0.537l0.197,2.461l-1.149,1.357l-3.168,3.049l-2.51,6.222l-0.392,2.085l-5.781,10.015l-3.243-0.278
		l-0.973-14.764l1-3.891l0.819-6.636L475.799,396.922"/>
	<path id="FL_Madison" inkscape:label="Madison, FL" fill="#999999" stroke="#FFFFFF" stroke-width="1.039" d="M490.35,396.762
		l1.81-0.003l1.636,0.842l1.42,5.999l0.938,2.072l0.231,0.224l1.811,1.3l-2.445,5.642l-4.504,0.36l-3.852,0.299l-0.127-1.915
		l-13.211,1.009l0.392-2.085l2.51-6.222l3.168-3.049l1.149-1.357l-0.197-2.461l-0.306-0.537L490.35,396.762"/>
	<path id="FL_Hamilton" inkscape:label="Hamilton, FL" fill="#999999" stroke="#FFFFFF" stroke-width="1.039" d="M498.666,396.678
		l16.85-0.207l-0.945,1.596l-0.058,0.777l0.084,1.216l0.695,0.912l2.008,2.374l0.224,0.362l0.327,1.064l-0.009,0.396l-1.152,2.552
		l-0.249,0.274l-2.052,0.865l-1.757-0.252l-0.114-0.451l-6.339-2.839l-1.874-0.472l-2.998-0.23l-1.43,0.377l-1.189,0.761
		l-0.114,0.16l-0.378,1.282l-1.811-1.3l-0.231-0.224l-0.938-2.072l-1.42-5.999l-1.636-0.842L498.666,396.678"/>
	<path id="FL_Columbia" inkscape:label="Columbia, FL" fill="#999999" stroke="#FFFFFF" stroke-width="1.039" d="M519.496,396.403
		l4.686-0.072l1.732,19.46l-1.957,8.714l-4.475,5.242l-5.725-3.992l-1.24-17.599l0.114,0.451l1.757,0.252l2.052-0.865l0.249-0.274
		l1.152-2.552l0.009-0.396l-0.327-1.064l-0.224-0.362l-2.008-2.374l-0.695-0.912l-0.084-1.216l0.058-0.777l0.945-1.596
		L519.496,396.403"/>
	<path id="FL_Baker" inkscape:label="Baker, FL" fill="#999999" stroke="#FFFFFF" stroke-width="1.039" d="M525.713,396.31
		l7.683-0.039l0.751,6.175l0.314,0.995l0.643,1.044l0.741,0.653l0.244,0.064l4.315-0.584l0.383,3.86l0.503,5.659l-3.504,0.321
		l-11.872,1.333l-1.732-19.46L525.713,396.31"/>
	<path id="FL_Duval" inkscape:label="Duval, FL" fill="#999999" stroke="#FFFFFF" stroke-width="1.039" d="M540.787,408.478
		l7.299-9.04l3.426-4.138l0.839-0.716l0.394-0.191l2.686-0.979l4.244,0.406l0.561,0.11l2.344,2.134l0.689,0.514l0.626,0.585
		l0.858,3.49l0.297,2.616l0.322,1.579l0.355,1.263l0.305,0.879l-2.143,0.239l0.744,6.375l-3.959,0.448l-2.455-0.933l-0.863-0.048
		l-2.081,0.738l-0.261-3.015l-1.18,0.086l-1.051,0.171l-7.879,0.855l-3.782,0.336L540.787,408.478"/>
	<path id="FL_Nassau" inkscape:label="Nassau, FL" fill="#999999" stroke="#FFFFFF" stroke-width="1.039" d="M561.69,387.383
		l0.889,8.681l-2.344-2.134l-0.561-0.11l-4.244-0.406l-2.686,0.979l-0.394,0.191l-0.839,0.716l-3.426,4.138l-7.299,9.04l-0.383-3.86
		l0.367-3.01l0.367-2.973l0.139-2.917l-0.416-1.368l-1.059-1.56l-0.532-0.916l-0.115-0.909l0.591-4.694l4.214-2.148l1.526,1.159
		l5.742,1.576l4.36,0.735l2.327,0.026l3.194-0.204L561.69,387.383"/>
	
		<path id="path6608" inkscape:label="Monroe, FL" sodipodi:nodetypes="cccccccccccccccccccccccccccccccccccccccccccccccccccccccccccccccccccccccccc" fill="#999999" d="
		M616.198,635.757l-0.5,0.922l-1.678,1.342l-1.664,1.28l-1.964,0.595l-0.165,0.035l0.001-0.014l-0.032-0.032l0.18-0.19l1.984-1.768
		l3.541-2.383L616.198,635.757 M631.979,614.099l-0.252,0.158l-0.623,1.031l-2.707,5.936l-0.082,0.27l0.244,0.643l-0.281,0.672
		l-0.629,1.1l-6.732,8.172l-0.206,0.217l-3.266,2.781l-0.09-0.097l0.002-0.03l0.028-0.199l1.355-1.838l0.912-0.711l1.939-1.999
		l1.268-1.367l2.266-3.036l0.385-0.623l2.516-4.629l3.051-6.694L631.979,614.099 M605.773,642.663l-1.813,1.476l-2.39,1.44
		l-1.163,0.27l-0.627-0.537l-0.087-0.09l-0.067-0.133l3.477-1.715l4.813-2.332l0.024,0.046l0.19,0.47l-0.213,0.234L605.773,642.663
		 M581.475,649.003l0.057-0.458l0.613-1.079l5.475-2.46l1.494,0.343l2.758,0.813l1.044,1.82l-0.006,0.105l-0.177,0.129l-0.396,0.219
		l-0.742,0.42l-2.428,1.027l-15.391,4.684l-0.977,0.173l-0.102-0.063l-0.133-0.727l0.098-0.27l0.627-0.77l1.838-0.351l0.352-0.021
		l0.214,0.238l0.169,0.071l1.424-0.564l0.597-0.299l1.581-1.184L581.475,649.003"/>
</g>
</svg>
