<?xml version="1.0" encoding="utf-8"?>
<!-- Generator: Adobe Illustrator 16.0.0, SVG Export Plug-In . SVG Version: 6.00 Build 0)  -->
<!DOCTYPE svg PUBLIC "-//W3C//DTD SVG 1.1//EN" "http://www.w3.org/Graphics/SVG/1.1/DTD/svg11.dtd">
<svg version="1.1"
	 id="svg5730" xmlns:dc="http://purl.org/dc/elements/1.1/" xmlns:cc="http://creativecommons.org/ns#" xmlns:rdf="http://www.w3.org/1999/02/22-rdf-syntax-ns#" xmlns:svg="http://www.w3.org/2000/svg" xmlns:sodipodi="http://sodipodi.sourceforge.net/DTD/sodipodi-0.dtd" xmlns:inkscape="http://www.inkscape.org/namespaces/inkscape" inkscape:output_extension="org.inkscape.output.svg.inkscape" sodipodi:docname="Illinois Republican Presidential Primary Election Results by County, 2012.svg" inkscape:version="0.48.2 r9819" sodipodi:version="0.32"
	 xmlns="http://www.w3.org/2000/svg" xmlns:xlink="http://www.w3.org/1999/xlink" x="0px" y="0px" width="186.816px"
	 height="337.484px" viewBox="0 0 186.816 337.484" enable-background="new 0 0 186.816 337.484" xml:space="preserve">
<defs>
	
	
		<inkscape:perspective  id="perspective5738" inkscape:vp_z="744.09448 : 526.18109 : 1" inkscape:vp_y="0 : 1000 : 0" inkscape:vp_x="0 : 526.18109 : 1" sodipodi:type="inkscape:persp3d" inkscape:persp3d-origin="372.04724 : 350.78739 : 1">
		</inkscape:perspective>
</defs>
<sodipodi:namedview  showguides="true" showgrid="false" inkscape:cy="167.54738" inkscape:cx="93.408318" inkscape:zoom="1.576372" objecttolerance="10" guidetolerance="10" gridtolerance="10000" borderopacity="1.0" bordercolor="#666666" pagecolor="#ffffff" id="base" inkscape:window-maximized="0" inkscape:window-y="0" inkscape:window-x="-4" inkscape:window-height="721" inkscape:window-width="786" inkscape:current-layer="layer1" inkscape:document-units="px" inkscape:pageshadow="2" inkscape:pageopacity="0.0" inkscape:guide-bbox="true">
	</sodipodi:namedview>
<g id="layer1" transform="translate(-289.90804,-415.40968)" inkscape:label="Layer 1" inkscape:groupmode="layer">
	<path id="IL_Vermilion" inkscape:label="Vermilion, IL" fill="#999999" stroke="#FFFFFF" stroke-width="0.9697" d="
		M469.945,540.145l0.181,19.425l0.237,15.628l-18.047,0.521l-0.552-20.388l0.598-0.02l-0.337-10.26l-0.205-5.104l18.114-0.645
		L469.945,540.145"/>
	<path id="IL_Iroquois" inkscape:label="Iroquois, IL" fill="#999999" stroke="#FFFFFF" stroke-width="0.9697" d="M442.706,509.906
		l26.605-1.213l0.623,30.611l-18.114,0.646l-8.085,0.018L442.706,509.906"/>
	<path id="IL_Alexander" inkscape:label="Alexander, IL" fill="#999999" stroke="#FFFFFF" stroke-width="0.9697" d="
		M383.243,726.514l10.913-0.033l-0.58,6.382l-0.553,5.931l0.367,0.948l0.336,0.461l1.094,0.585l2.916,1.47l1.844,5.047l-8.817-1.565
		l-2.912-2.727l-1.356-4.112l-2.472-5.504l-1.053-1.752L383.243,726.514"/>
	<path id="IL_Pulaski" inkscape:label="Pulaski, IL" fill="#999999" stroke="#FFFFFF" stroke-width="0.9697" d="M394.156,726.481
		l9.416,0.278l5.354,1.578l0.08,4.521l-0.255,0.063l-11.016,9.334l-2.916-1.47l-1.094-0.585l-0.336-0.461l-0.367-0.948l0.553-5.931
		L394.156,726.481"/>
	<path id="IL_Massac" inkscape:label="Massac, IL" fill="#999999" stroke="#FFFFFF" stroke-width="0.9697" d="M408.926,728.337
		l10.088-2.092l10.283,10.383l0.078,5.48l-3.341-0.59l-17.028-8.661L408.926,728.337"/>
	<path id="IL_Hardin" inkscape:label="Hardin, IL" fill="#999999" stroke="#FFFFFF" stroke-width="0.9697" d="M434.332,710.598
		l11.174,1.337l3.388,4.028l-0.065,0.941l-0.941,0.938l-0.476,0.072l-6.467,0.912l-0.975,0.138l-0.808,0.168l-0.297,0.065
		l-0.101,0.012l-1.151,0.595l-0.231,0.13l-0.041,0.016l-0.829,0.667l-1.268,1.465l-2.617-1.059l0.021-10.418L434.332,710.598"/>
	<path id="IL_Pope" inkscape:label="Pope, IL" fill="#999999" stroke="#FFFFFF" stroke-width="0.9697" d="M432.646,710.605
		l-0.021,10.418l-0.293,0.104l-0.817,0.308l-0.343,0.228l-0.434,0.262l-0.646,0.729l-0.279,0.56l-1.705,5.664l-0.001,0.021
		l-0.054,0.389l0.307,1.291l1.779,2.462l0.592,0.391l0.533,0.588l1.104,2.988l-0.896,3.197l-0.652,1.476l-1.097,0.398l-0.35,0.034
		l-0.078-5.48l-10.283-10.383l-0.021-15.474L432.646,710.605"/>
	<path id="IL_Johnson" inkscape:label="Johnson, IL" fill="#999999" stroke="#FFFFFF" stroke-width="0.9697" d="M418.994,710.773
		l0.021,15.474l-10.088,2.092l-5.354-1.578l0.079-15.729L418.994,710.773"/>
	<path id="IL_Union" inkscape:label="Union, IL" fill="#999999" stroke="#FFFFFF" stroke-width="0.9697" d="M403.651,711.03
		l-0.079,15.729l-9.416-0.278l-10.913,0.033l1.702-0.334l0.549-0.235l0.045-0.057l0.05-0.037l0.038-0.057l0.226-0.54l0.305-1.786
		l0.027-0.075l-0.019-0.063l-0.194-1.002l-0.017-0.098l-0.016-0.046l-0.62-1.704l-0.521-0.755l-1.127-1.271l-0.769-1.342
		l-1.137-2.521l-0.019-0.015l-0.209-1.188l-0.004-0.533l0.024-0.349l16.938-1.689L403.651,711.03"/>
	<path id="IL_Gallatin" inkscape:label="Gallatin, IL" fill="#999999" stroke="#FFFFFF" stroke-width="0.9697" d="M448.199,693.267
		l1.95,5.328l-0.747,2.184l-0.262,0.578l-0.39,0.605l-0.594,0.561l-2.229,1.398l-0.037,0.021l-0.834,1.341l-0.415,0.604
		l-0.067,0.122l-0.29,0.636l-0.091,0.403l0.018,0.064l0.149,1.34l0.022,0.064l0.797,2.722l0.324,0.696l-11.173-1.337l-0.166-18.189
		l0.003-0.041L448.199,693.267"/>
	<path id="IL_Saline" inkscape:label="Saline, IL" fill="#999999" stroke="#FFFFFF" stroke-width="0.9697" d="M434.166,692.406
		l0.166,18.19l-1.686,0.007l-13.652,0.168l-0.057-15.598l-0.006-2.563L434.166,692.406"/>
	<path id="IL_Williamson" inkscape:label="Williamson, IL" fill="#999999" stroke="#FFFFFF" stroke-width="0.9697" d="
		M418.937,695.175l0.057,15.598l-15.343,0.257l-5.155-0.213l0.056-15.443L418.937,695.175"/>
	<path id="IL_Jackson" inkscape:label="Jackson, IL" fill="#999999" stroke="#FFFFFF" stroke-width="0.9697" d="M378.19,689.895
		l19.121,0.268l1.239,5.211l-0.056,15.443l-16.938,1.689l-7.019-13.654L378.19,689.895"/>
	<path id="IL_Monroe" inkscape:label="Monroe, IL" fill="#999999" stroke="#FFFFFF" stroke-width="0.9697" d="M347.834,656.403
		l5.317,5.556l10.079,9.444l1.066,2.764l-6.253-0.156l-0.022,5.169l-7.701,2.712l-2.2-1.895l-3.585-4.002l-0.108-0.136l-0.132-0.214
		l-0.759-1.204l-0.439-1.345l-0.432-2.67l0.082-2.457l0.082-0.591l0.104-0.238l0.821-2.22l0.232-0.395l0.138-0.153L347.834,656.403"
		/>
	<path id="IL_Randolph" inkscape:label="Randolph, IL" fill="#999999" stroke="#FFFFFF" stroke-width="0.9697" d="M378.301,674.313
		l-0.11,15.582l-3.651,8.957l-12.101-4.271l-12.119-12.69l7.701-2.712l0.022-5.169l6.253,0.156l8.953,0.128L378.301,674.313"/>
	<path id="IL_Perry" inkscape:label="Perry, IL" fill="#999999" stroke="#FFFFFF" stroke-width="0.9697" d="M378.301,674.313
		l20.34,0.348l0.862,5.188l-2.191,10.313l-19.121-0.268L378.301,674.313"/>
	<path id="IL_Franklin" inkscape:label="Franklin, IL" fill="#999999" stroke="#FFFFFF" stroke-width="0.9697" d="M418.912,679.707
		l0.025,15.468l-20.387,0.197l-1.239-5.211l2.191-10.313L418.912,679.707"/>
	<path id="IL_Hamilton" inkscape:label="Hamilton, IL" fill="#999999" stroke="#FFFFFF" stroke-width="0.9697" d="M434.115,671.89
		l0.054,20.478l-0.003,0.041l-15.233,0.204l-0.021-12.904l0.037-7.753L434.115,671.89"/>
	<path id="IL_White" inkscape:label="White, IL" fill="#999999" stroke="#FFFFFF" stroke-width="0.9697" d="M451.445,671.379
		l1.564,2.015l-0.685,6.106l-1.582,13.485l-0.14,0.241l-0.03,0.039l-0.104,0.062l-0.078,0.009l-2.193-0.069l-14.03-0.899
		l-0.054-20.478l10.025-0.171L451.445,671.379"/>
	<path id="IL_Jefferson" inkscape:label="Jefferson, IL" fill="#999999" stroke="#FFFFFF" stroke-width="0.9697" d="
		M418.996,659.076l-0.047,12.878l-0.037,7.753l-19.407,0.141l-0.863-5.188l0.095-15.42L418.996,659.076"/>
	<path id="IL_Washington" inkscape:label="Washington, IL" fill="#999999" stroke="#FFFFFF" stroke-width="0.9697" d="
		M398.754,657.522l-0.019,1.719l-0.095,15.42l-20.34-0.348l-5.052-0.02l-0.012-11.757l1.656-1.447l2.462-1.779l1.887-0.565
		L393,657.326L398.754,657.522"/>
	<path id="IL_Clinton" inkscape:label="Clinton, IL" fill="#999999" stroke="#FFFFFF" stroke-width="0.9697" d="M393.691,643.423
		l5.248,0.324l-0.187,13.773L393,657.326l-13.757,1.417l-1.887,0.565l-2.462,1.779l-1.656,1.447l-0.086-13.976l4.973-5.198
		L393.691,643.423"/>
	<path id="IL_St._Clair" inkscape:label="St. Clair, IL" fill="#999999" stroke="#FFFFFF" stroke-width="0.9697" d="
		M351.615,648.147l21.537,0.415l0.086,13.976l0.012,11.757l-8.954-0.128l-1.065-2.764l-10.079-9.444l-5.317-5.556l0.253-0.706
		L351.615,648.147"/>
	<path id="IL_Madison" inkscape:label="Madison, IL" fill="#999999" stroke="#FFFFFF" stroke-width="0.9697" d="M376.249,628.26
		l0.105,4.764l0.54,2.601l1.182,3.673l0.048,4.066l-4.973,5.198l-21.537-0.415l-0.609-4.767l3.564-3.788l0.137-0.546l0.257-1.339
		l-0.018-0.348l-0.163-0.339l-4.247-2.98l-0.826-0.567l-1.104-0.626l-1.14-0.434l5.898-4.314l20.216,0.165L376.249,628.26"/>
	<path id="IL_Bond" inkscape:label="Bond, IL" fill="#999999" stroke="#FFFFFF" stroke-width="0.9697" d="M393.822,626.555
		l-0.131,16.868l-15.567-0.061l-0.048-4.066l-1.182-3.673l-0.54-2.601l-0.105-4.764L393.822,626.555"/>
	<path id="IL_Marion" inkscape:label="Marion, IL" fill="#999999" stroke="#FFFFFF" stroke-width="0.9697" d="M398.939,643.747
		l0.006-5.188l6.261,0.039l13.801-0.263l-0.027,12.983l0.018,7.758l-20.261,0.164l0.02-1.72L398.939,643.747"/>
	<path id="IL_Wayne" inkscape:label="Wayne, IL" fill="#999999" stroke="#FFFFFF" stroke-width="0.9697" d="M439.171,651.496
		l4.864,1.754l0.105,18.469l-10.025,0.171l-15.166,0.064l0.047-12.878l-0.018-7.758L439.171,651.496"/>
	<path id="IL_Wabash" inkscape:label="Wabash, IL" fill="#999999" stroke="#FFFFFF" stroke-width="0.9697" d="M454.718,652.979
		l11.865-0.072l-3.891,9.128l-9.601,11.078l-0.083,0.281l-1.564-2.015l1.345-18.369L454.718,652.979"/>
	<path id="IL_Edwards" inkscape:label="Edwards, IL" fill="#999999" stroke="#FFFFFF" stroke-width="0.9697" d="M452.79,653.01
		l-1.345,18.369l-7.305,0.34l-0.105-18.469L452.79,653.01"/>
	<path id="IL_Lawrence" inkscape:label="Lawrence, IL" fill="#999999" stroke="#FFFFFF" stroke-width="0.9697" d="M471.658,636.023
		l0.186,0.035l0.089,0.17l1.481,3.857l-0.115,1.426l-0.895,3.671l-0.506,0.789l-0.383,0.278l-3.89,4.325l-1.043,2.331l-11.865,0.072
		l-0.075-16.522L471.658,636.023"/>
	<path id="IL_Richland" inkscape:label="Richland, IL" fill="#999999" stroke="#FFFFFF" stroke-width="0.9697" d="M454.642,636.455
		l0.075,16.522l-1.929,0.031l-8.755,0.24l-4.864-1.754l-1.486-5.256l-0.066-0.883l0.102-1.653l1.188,0.04l-0.149-6.884l14.181-0.358
		L454.642,636.455"/>
	
		<path id="IL_Clay" inkscape:label="Clay, IL" sodipodi:nodetypes="cccccccccccc" fill="#999999" stroke="#FFFFFF" stroke-width="0.9697" d="
		M419.037,633.108l15.034,0.068l0.039,3.8l4.646-0.114l0.149,6.884l-1.188-0.04l-0.102,1.653l0.066,0.883l1.486,5.256l-20.191-0.178
		l0.026-12.983L419.037,633.108"/>
	
		<path id="IL_Jasper" inkscape:label="Jasper, IL" sodipodi:nodetypes="cccccc" fill="#999999" stroke="#FFFFFF" stroke-width="0.9697" d="
		M449.818,617.436l2.592-0.104l0.527,19.171l-18.828,0.478l-0.193-19.158L449.818,617.436"/>
	<path id="IL_Crawford" inkscape:label="Crawford, IL" fill="#999999" stroke="#FFFFFF" stroke-width="0.9697" d="M452.41,617.331
		l14.513,0.788l0.702,3.201l1.953,2.644l2.847,6.017l-0.25,1.854l-0.391,0.901l-0.292,0.349l0.166,2.938l-17.016,0.434l-1.705,0.047
		L452.41,617.331"/>
	<path id="IL_Clark" inkscape:label="Clark, IL" fill="#999999" stroke="#FFFFFF" stroke-width="0.9697" d="M451.681,599.266
		l12.184-0.578l-0.017,0.632l7.065-0.17l-2.98,12.927l-1.012,6.044l-14.513-0.788l-2.592,0.104l-0.38-12.088L451.681,599.266"/>
	
		<path id="IL_Cumberland" inkscape:label="Cumberland, IL" sodipodi:nodetypes="ccccc" fill="#999999" stroke="#FFFFFF" stroke-width="0.9697" d="
		M449.438,605.348l0.38,12.088l-20.867,0.503l-0.127-12.055L449.438,605.348"/>
	
		<path id="IL_Effingham" inkscape:label="Effingham, IL" sodipodi:nodetypes="ccccccc" fill="#999999" stroke="#FFFFFF" stroke-width="0.9697" d="
		M428.914,615.302l0.033,2.642l4.969-0.122l0.155,15.354l-15.034-0.068l-5.12,0.203l-0.058-17.978"/>
	<path id="IL_Fayette" inkscape:label="Fayette, IL" fill="#999999" stroke="#FFFFFF" stroke-width="0.9697" d="M413.859,615.333
		l0.058,17.978l5.12-0.203l-0.03,5.229l-13.801,0.263l-6.261-0.039l-0.006,5.188l-5.248-0.324l0.131-16.868l4.954-11.229
		L413.859,615.333"/>
	<path id="IL_Shelby" inkscape:label="Shelby, IL" fill="#999999" stroke="#FFFFFF" stroke-width="0.9697" d="M403.793,589.553
		l9.621,0.006l0.114,4.3l10.139,6.787l2.09,0.939l3.041-0.015l0.026,4.313l0.09,9.418l-15.055,0.031l-15.083-0.008l-0.02-7.734
		l5.143,0.144l0.021-10.436L403.793,589.553"/>
	<path id="IL_Montgomery" inkscape:label="Montgomery, IL" fill="#999999" stroke="#FFFFFF" stroke-width="0.9697" d="
		M373.514,597.322l7.528-0.083l0.138,10.393l12.554,0.002l5.022-0.041l0.02,7.734l-4.954,11.229l-17.573,1.705l-2.667,0.004
		L373.514,597.322"/>
	<path id="IL_Jersey" inkscape:label="Jersey, IL" fill="#999999" stroke="#FFFFFF" stroke-width="0.9697" d="M353.381,612.638
		l-0.017,15.461l-5.898,4.314l-7.907-2.511l-6.788-8.919l1.063-3.968l2.013-0.336l1.234,0.309l0.243,0.248l0.02,0.125l0.739,0.496
		l7.784-0.073l-0.002-3.02l5.404-2.137L353.381,612.638"/>
	<path id="IL_Macoupin" inkscape:label="Macoupin, IL" fill="#999999" stroke="#FFFFFF" stroke-width="0.9697" d="M363.435,597.344
		l10.079-0.022l0.067,30.942l-20.216-0.165l0.017-15.461l-0.164-15.236L363.435,597.344"/>
	<path id="IL_Calhoun" inkscape:label="Calhoun, IL" fill="#999999" stroke="#FFFFFF" stroke-width="0.9697" d="M317.353,604.127
		l15.146,0.426l0.273,16.432l6.788,8.919l-9.746,1.87l-1.981-6.677l0.001-0.021l-0.085-0.415l0.059-0.184l1.357-1.813l0.086-0.731
		l-1.608-7.311L317.353,604.127"/>
	<path id="IL_Greene" inkscape:label="Greene, IL" fill="#999999" stroke="#FFFFFF" stroke-width="0.9697" d="M353.218,597.402
		l0.164,15.236l-2.111-0.009l-5.404,2.137l0.002,3.02l-7.784,0.073l-0.739-0.496l-0.02-0.125l-0.243-0.247l-1.234-0.31l-2.013,0.336
		l-1.063,3.968l-0.273-16.432l1.558-7.421l12.52,0.223L353.218,597.402"/>
	<path id="IL_Christian" inkscape:label="Christian, IL" fill="#999999" stroke="#FFFFFF" stroke-width="0.9697" d="
		M395.181,580.204l3.399,0.721l0.144,8.585l5.067,0.043l0.127,7.746l-0.021,10.436l-5.143-0.144l-5.022,0.041l-12.554-0.002
		l-0.138-10.393l-0.056-6.872l6.213-5.973l6.31-4.305L395.181,580.204"/>
	<path id="IL_Coles" inkscape:label="Coles, IL" fill="#999999" stroke="#FFFFFF" stroke-width="0.9697" d="M428.592,589.514
		l18.304-0.28l-0.024-1.704l1.673-0.234l2.652-0.114l0.485,12.086l-2.243,6.082l-20.614,0.536l-0.026-4.313L428.592,589.514"/>
	<path id="IL_Edgar" inkscape:label="Edgar, IL" fill="#999999" stroke="#FFFFFF" stroke-width="0.9697" d="M452.316,575.719
		l18.047-0.521l0.379,16.271l0.173,7.682l-7.065,0.17l0.017-0.632l-12.184,0.578l-0.485-12.086l-0.132-4.306l1.242-1.99
		L452.316,575.719"/>
	<path id="IL_Douglas" inkscape:label="Douglas, IL" fill="#999999" stroke="#FFFFFF" stroke-width="0.9697" d="M428.883,576.073
		l23.434-0.354l-0.01,5.165l-1.242,1.99l0.132,4.306l-2.652,0.114l-1.673,0.234l0.024,1.704l-18.304,0.28l-0.146-8.275
		L428.883,576.073"/>
	<path id="IL_Moultrie" inkscape:label="Moultrie, IL" fill="#999999" stroke="#FFFFFF" stroke-width="0.9697" d="M428.446,581.239
		l0.146,8.275l0.205,12.058l-3.041,0.015l-2.09-0.939l-10.139-6.787l-0.114-4.3l2.858-8.211L428.446,581.239"/>
	<path id="IL_Macon" inkscape:label="Macon, IL" fill="#999999" stroke="#FFFFFF" stroke-width="0.9697" d="M416.169,565.829
		l0.104,15.519l-2.858,8.211l-9.621-0.006l-5.067-0.043l-0.144-8.585l-3.399-0.721l-0.029-6.139l3.243-7.778l5.157-0.073
		l10.013-0.386L416.169,565.829"/>
	<path id="IL_Sangamon" inkscape:label="Sangamon, IL" fill="#999999" stroke="#FFFFFF" stroke-width="0.9697" d="M379.059,570.603
		l4.23-0.037l0.012,2.563l3.507,0.896l8.344,0.041l0.029,6.139l-1.672-0.115l-6.31,4.305l-6.213,5.974l0.056,6.872l-7.528,0.083
		l-10.079,0.021l0.077-1.715l-0.217-1.285l-2.424-8.582l-0.387-3.964l0.009-5.17l-0.004-1.727l10.052,0.035l3.015-0.936
		l-0.019-1.193l0.186-2.163L379.059,570.603"/>
	<path id="IL_Morgan" inkscape:label="Morgan, IL" fill="#999999" stroke="#FFFFFF" stroke-width="0.9697" d="M334.185,576.176
		l26.309,0.452l-0.009,5.17l0.387,3.964l2.424,8.582l0.217,1.285l-0.077,1.715l-10.218,0.058l-6.643-0.047l0.125-6.864l-3.091-6.938
		l-4.982-2.149l-5.182-0.104l1.242-2.909L334.185,576.176"/>
	<path id="IL_Scott" inkscape:label="Scott, IL" fill="#999999" stroke="#FFFFFF" stroke-width="0.9697" d="M346.576,597.355
		l-12.52-0.223l0.397-1.021l-0.003-0.224l-0.268-1.206l-1.267-4.497l-0.37-6.266l0.898-2.624l5.182,0.104l4.982,2.149l3.091,6.938
		L346.576,597.355"/>
	<path id="IL_Pike" inkscape:label="Pike, IL" fill="#999999" stroke="#FFFFFF" stroke-width="0.9697" d="M334.688,578.387
		l-1.242,2.909l-0.898,2.624l0.37,6.266l1.267,4.497l0.268,1.206l0.003,0.224l-0.397,1.021l-1.558,7.421l-15.146-0.426
		l-9.992-11.911l-5.968-5.226l-2.361-4.392l7.349,0.241l12.844,0.204l0.068-5.185L334.688,578.387"/>
	<path id="IL_Brown" inkscape:label="Brown, IL" fill="#999999" stroke="#FFFFFF" stroke-width="0.9697" d="M319.651,562.537
		l5.233,0.015l4.458,0.16l3.048,4.665l0.883,2.046l4.103,0.241l-3.191,6.512l0.503,2.211l-15.395-0.525L319.651,562.537"/>
	<path id="IL_Adams" inkscape:label="Adams, IL" fill="#999999" stroke="#FFFFFF" stroke-width="0.9697" d="M319.81,557.315
		l-0.159,5.224l-0.356,15.323l-0.068,5.185l-12.844-0.204l-7.349-0.241l-3.711-11.102l-2.103-15.102L319.81,557.315"/>
	<path id="IL_Hancock" inkscape:label="Hancock, IL" fill="#999999" stroke="#FFFFFF" stroke-width="0.9697" d="M308.104,530.875
		l12.444,0.132l-0.574,20.93l-0.165,5.378l-26.591-0.917l0.468-2.84l3.796-7.555l1.383-0.383l0.066-0.032l0.494-0.357l0.139-0.504
		l0.021-0.035l0.479-5.247l0.004-0.592l-0.196-0.728l-0.661-1.115l-0.872-0.488l-0.11-0.499l0.098-0.43l2.054-2.727l0.177-0.176
		l0.174-0.146l0.146-0.141l0.406-0.218l1.149-0.554l0.272-0.132l0.066-0.036l2.366-0.652l0.018,0.001l0.35,0.006l1.171-0.006
		L308.104,530.875"/>
	<path id="IL_McDonough" inkscape:label="Donough, IL" fill="#999999" stroke="#FFFFFF" stroke-width="0.9697" d="M325.618,531.278
		l15.171,0.651l-0.414,20.731l-20.4-0.725l0.574-20.93L325.618,531.278"/>
	<path id="IL_Schuyler" inkscape:label="Schuyler, IL" fill="#999999" stroke="#FFFFFF" stroke-width="0.9697" d="M319.974,551.937
		l20.4,0.725l11.083,5.559l-6.946,3.465l-7.136,7.98l-4.103-0.241l-0.883-2.046l-3.048-4.665l-4.458-0.16l-5.233-0.015
		L319.974,551.937"/>
	<path id="IL_Cass" inkscape:label="Cass, IL" fill="#999999" stroke="#FFFFFF" stroke-width="0.9697" d="M344.512,561.684
		l3.063,4.088l3.964,0.209l0.084-0.035l4.536-1.494l4.184-1.394l0.204-0.313l-0.058,12.157l0.004,1.727l-26.309-0.452l3.191-6.512
		L344.512,561.684"/>
	<path id="IL_Menard" inkscape:label="Menard, IL" fill="#999999" stroke="#FFFFFF" stroke-width="0.9697" d="M360.547,562.744
		l2.063-1.415l12.417-1.586l1.571,0.39l1.458,1.825l1.003,8.645l-5.337,0.043l-0.186,2.163l0.019,1.193l-3.015,0.936l-10.052-0.034
		L360.547,562.744"/>
	<path id="IL_Mason" inkscape:label="Mason, IL" fill="#999999" stroke="#FFFFFF" stroke-width="0.9697" d="M363.764,543.416
		l9.182,0.058l0.083,6.874l4.965-0.05l0.063,11.66l-1.458-1.825l-1.571-0.39l-12.417,1.586l-2.063,1.415l-0.204,0.313l-4.184,1.393
		l-4.536,1.495l-0.084,0.035l-3.964-0.209l-3.063-4.088l6.946-3.465l3.232-2.522l0.311-0.352l2.331-3.713l0.776-3.288l0.308-0.907
		l0.301-0.457l4.381-3.222L363.764,543.416"/>
	<path id="IL_Logan" inkscape:label="Logan, IL" fill="#999999" stroke="#FFFFFF" stroke-width="0.9697" d="M393.056,550.004
		l5.093,2.524l0.247,13.759l-3.243,7.778l-8.344-0.041l-3.507-0.896l-0.012-2.563l-4.23,0.037l-1.003-8.645l-0.063-11.66
		L393.056,550.004"/>
	<path id="IL_De_Witt" inkscape:label="De Witt, IL" fill="#999999" stroke="#FFFFFF" stroke-width="0.9697" d="M423.646,552.393
		l-7.479,13.438l-2.604-0.001l-10.013,0.386l-5.157,0.073l-0.247-13.759L423.646,552.393"/>
	<path id="IL_Piatt" inkscape:label="Piatt, IL" fill="#999999" stroke="#FFFFFF" stroke-width="0.9697" d="M423.646,552.393
		l5.105-0.059l0.131,23.739l-0.438,5.164l-12.174,0.109l-0.104-15.519L423.646,552.393"/>
	<path id="IL_Champaign" inkscape:label="Champaign, IL" fill="#999999" stroke="#FFFFFF" stroke-width="0.9697" d="
		M428.655,545.413l23.37-0.36l0.337,10.26l-0.598,0.02l0.552,20.388l-23.434,0.355l-0.131-23.74L428.655,545.413"/>
	<path id="IL_Ford" inkscape:label="Ford, IL" fill="#999999" stroke="#FFFFFF" stroke-width="0.9697" d="M437.637,510.156
		l5.068-0.247l1.029,30.061l8.085-0.018l0.205,5.103l-23.37,0.36l-0.097-12.894l9.914-0.155L437.637,510.156"/>
	<path id="IL_McLean" inkscape:label="McLean, IL" fill="#999999" stroke="#FFFFFF" stroke-width="0.9697" d="M407.736,524.668
		l15.232-0.364l0.114,5.138l0.396,3.183l5.078-0.104l0.097,12.894l0.098,6.921l-5.105,0.059l-25.498,0.138l-5.093-2.525
		l-0.283-15.878l5.987-0.166l3.955-1.841l2.613-2.22L407.736,524.668"/>
	<path id="IL_Tazewell" inkscape:label="Tazewell, IL" fill="#999999" stroke="#FFFFFF" stroke-width="0.9697" d="M380.14,525.071
		l9.93-0.036l0.008,3.45l0.131,4.4l2.563,1.241l0.283,15.878l-15.063,0.294l-4.965,0.05l-0.083-6.874l-9.182-0.058l2.314-4.542
		l9.492-5.192l4.57-5.967l0.379-1.018l-0.166-1.1L380.14,525.071"/>
	<path id="IL_Woodford" inkscape:label="Woodford, IL" fill="#999999" stroke="#FFFFFF" stroke-width="0.9697" d="M402.49,514.527
		l5.094-0.142l0.152,10.283l-2.407,5.231l-2.613,2.22l-3.955,1.841l-5.987,0.166l-2.563-1.241l-0.131-4.4l-0.008-3.451l-9.93,0.037
		l3.657-10.23L402.49,514.527"/>
	<path id="IL_Peoria" inkscape:label="Peoria, IL" fill="#999999" stroke="#FFFFFF" stroke-width="0.9697" d="M376.482,511.733
		l7.315,3.106l-3.657,10.23l0.214,0.528l0.166,1.1l-0.379,1.018l-4.57,5.967l-9.492,5.192l0.049-3.952l-0.062-2.612l-5.104-0.101
		l0.164-5.102l0.104-15.48L376.482,511.733"/>
	<path id="IL_Fulton" inkscape:label="Fulton, IL" fill="#999999" stroke="#FFFFFF" stroke-width="0.9697" d="M361.125,527.109
		l-0.164,5.102l5.104,0.101l0.062,2.612l-0.049,3.952l-2.314,4.542l-0.665,0.342l-4.381,3.222l-0.301,0.457l-0.308,0.907
		l-0.776,3.288l-2.331,3.713l-0.311,0.352l-3.232,2.522l-11.083-5.559l0.414-20.731l0.106-5.122L361.125,527.109"/>
	<path id="IL_Warren" inkscape:label="Warren, IL" fill="#999999" stroke="#FFFFFF" stroke-width="0.9697" d="M326.143,505.752
		l15.188,0.446l-0.543,25.729l-15.171-0.651L326.143,505.752"/>
	<path id="IL_Henderson" inkscape:label="Henderson, IL" fill="#999999" stroke="#FFFFFF" stroke-width="0.9697" d="
		M318.975,505.546l7.168,0.206l-0.525,25.524l-5.069-0.271l-12.444-0.132l3.313-3.387l0.759-6.594l0.215-0.745l3.746-4.631
		l0.502-0.43l1.313-0.629l0.271-0.352l0.49-1.709l0.505-4.745l-0.114-1.592L318.975,505.546"/>
	<path id="IL_Mercer" inkscape:label="Mercer, IL" fill="#999999" stroke="#FFFFFF" stroke-width="0.9697" d="M313.479,489.944
		l28.246,0.753l-0.393,15.503l-15.188-0.446l-7.168-0.206l-0.031-0.147l0.138-1.405l-1.824-3.513l-0.346-0.41l-0.342-0.188
		l-0.59,0.041l-1.348-0.789l-2.714-3.759l-0.016-0.042l-0.012-0.488L313.479,489.944"/>
	<path id="IL_Knox" inkscape:label="Knox, IL" fill="#999999" stroke="#FFFFFF" stroke-width="0.9697" d="M361.318,501.32
		l-0.089,10.309l-0.104,15.48l-20.229-0.302l0.438-20.606l0.126-5.14L361.318,501.32"/>
	<path id="IL_Stark" inkscape:label="Stark, IL" fill="#999999" stroke="#FFFFFF" stroke-width="0.9697" d="M366.912,496.347
		l9.577,5.091l-0.007,10.295l-15.254-0.104l0.089-10.309L366.912,496.347"/>
	<path id="IL_Marshall" inkscape:label="Marshall, IL" fill="#999999" stroke="#FFFFFF" stroke-width="0.9697" d="M376.489,501.438
		l7.577,0.007l5.998,0.021l-0.176,1.426l-0.112,0.384l-0.283,0.346l-0.445,0.201l-0.265,0.265l8.624-0.049l5.083,10.489
		l-18.692,0.313l-7.315-3.106L376.489,501.438"/>
	<path id="IL_Putnam" inkscape:label="Putnam, IL" fill="#999999" stroke="#FFFFFF" stroke-width="0.9697" d="M397.295,491.885
		l0.112,12.151l-8.624,0.049l0.265-0.265l0.445-0.201l0.283-0.346l0.112-0.384l0.176-1.426l-5.998-0.021l-0.03-5.05l6.209-4.048
		l2.459-1.142l0.534-0.022L397.295,491.885"/>
	<path id="IL_Livingston" inkscape:label="Livingston, IL" fill="#999999" stroke="#FFFFFF" stroke-width="0.9697" d="
		M422.685,503.648l14.678-0.512l0.273,7.02l0.836,22.211l-9.914,0.154l-5.078,0.104l-0.396-3.183l-0.114-5.138l-15.232,0.364
		l-0.152-10.283l-0.037-10.513L422.685,503.648"/>
	<path id="IL_Kankakee" inkscape:label="Kankakee, IL" fill="#999999" stroke="#FFFFFF" stroke-width="0.9697" d="M469.1,499.509
		l0.211,9.186l-26.605,1.214l-5.068,0.247l-0.273-7.02l0.251-5.172l7.637-0.321l2.439-3.237l-0.075-1.947l21.324-0.733
		L469.1,499.509"/>
	<path id="IL_Grundy" inkscape:label="Grundy, IL" fill="#999999" stroke="#FFFFFF" stroke-width="0.9697" d="M437.075,482.561
		l0.539,15.403l-0.251,5.172l-14.678,0.512l-0.625-20.58L437.075,482.561"/>
	<path id="IL_Will" inkscape:label="Will, IL" fill="#999999" stroke="#FFFFFF" stroke-width="0.9697" d="M436.451,467.129
		l10.152,2.153l0.107,2.599l10.499,9.952l11.56-0.23l0.17,10.121l-21.324,0.733l0.075,1.947l-2.439,3.237l-7.637,0.321
		l-0.539-15.403L436.451,467.129"/>
	<path id="IL_Kendall" inkscape:label="Kendall, IL" fill="#999999" stroke="#FFFFFF" stroke-width="0.9697" d="M436.433,467.128
		l0.018,0.001l0.624,15.432l-15.015,0.507l-0.376-10.285l-0.03-5.189L436.433,467.128"/>
	<path id="IL_La_Salle" inkscape:label="La Salle, IL" fill="#999999" stroke="#FFFFFF" stroke-width="0.9697" d="M407.039,473.092
		l14.646-0.311l0.376,10.285l0.625,20.58l-15.141,0.226l0.038,10.513l-5.094,0.142l-5.083-10.489l-0.112-12.151l-0.2-18.78
		l5.008,0.1L407.039,473.092"/>
	<path id="IL_Bureau" inkscape:label="Bureau, IL" fill="#999999" stroke="#FFFFFF" stroke-width="0.9697" d="M397.112,475.673
		l0.183,16.212l-4.057-0.702l-0.534,0.022l-2.459,1.142l-6.209,4.048l0.03,5.05l-7.577-0.007l-9.577-5.091l-0.123-20.609
		l10.054-0.046L397.112,475.673"/>
	<path id="IL_Henry" inkscape:label="Henry, IL" fill="#999999" stroke="#FFFFFF" stroke-width="0.9697" d="M366.789,475.738
		l0.123,20.609l-5.594,4.973l-19.859-0.259l0.267-10.364l0.169-7.635l2.975-2.695l0.539-0.354l0.793-0.292l2.101-0.347l1.631-0.152
		l2.329-1.032l0.449-0.855l0.257-1.007l-0.043-0.367l-0.223-0.349L366.789,475.738"/>
	<path id="IL_Rock_Island" inkscape:label="Rock Island, IL" fill="#999999" stroke="#FFFFFF" stroke-width="0.9697" d="
		M350.334,463.838l-0.239,1.112l-0.032,1.07l0.328,2.376l0.561,1.372l0.79,0.833l0.831,0.366l0.689,0.498l0.527,0.655l0.045,0.8
		l-0.026,0.717l-0.213,1.319l-0.117,0.179l-0.774,0.475l0.223,0.349l0.043,0.367l-0.257,1.007l-0.449,0.855l-2.329,1.032
		l-1.631,0.152l-2.101,0.347l-0.793,0.292l-0.539,0.354l-2.975,2.695l-0.169,7.635l-28.246-0.753l0.001-0.018l0.654-1.967
		l0.777-2.455l0.049-0.11l0.339-0.413l0.001-0.019l0.042-0.021l0.487-0.271l1.682-0.481l6.239-1.25l2.675,0.16l0.624,0.125
		l1.492,0.063l3.577-0.655l8.53-3.521l2.799-2.843l2.475-2.889l1.111-6.318L350.334,463.838"/>
	<path id="IL_Lee" inkscape:label="Lee, IL" fill="#999999" stroke="#FFFFFF" stroke-width="0.9697" d="M376.96,457.032l2.91-0.022
		l8.766-0.039l0.004,0.865l18.193-0.289l0.206,15.545l-4.938,0.111l-5.008-0.1l0.019,2.568l-20.27,0.019L376.96,457.032"/>
	<path id="IL_Whiteside" inkscape:label="Whiteside, IL" fill="#999999" stroke="#FFFFFF" stroke-width="0.9697" d="
		M374.492,455.325l2.468,1.708l-0.116,18.657l-10.054,0.046l-14.087-0.126l0.774-0.475l0.117-0.179l0.213-1.319l0.026-0.717
		l-0.045-0.8l-0.527-0.655l-0.689-0.498l-0.831-0.366l-0.79-0.833l-0.561-1.372l-0.328-2.376l0.032-1.071l0.239-1.111l3.972-8.503
		L374.492,455.325"/>
	<path id="IL_Carroll" inkscape:label="Carroll, IL" fill="#999999" stroke="#FFFFFF" stroke-width="0.9697" d="M374.446,439.5
		l0.046,15.825l-20.187,0.01l-0.052-6.145l-6.934-9.516l17.153-0.037L374.446,439.5"/>
	<path id="IL_Ogle" inkscape:label="Ogle, IL" fill="#999999" stroke="#FFFFFF" stroke-width="0.9697" d="M387.079,439.331
		l9.654-0.139l0.005,3.173l10.08-0.168l0.015,15.35l-18.193,0.289l-0.004-0.865l-8.766,0.039l-2.91,0.023l-2.468-1.708
		l-0.046-15.825L387.079,439.331"/>
	<path id="IL_DeKalb" inkscape:label="DeKalb, IL" fill="#999999" stroke="#FFFFFF" stroke-width="0.9697" d="M421.996,442.013
		l-0.342,25.579l0.03,5.189l-14.646,0.311l-0.206-15.545l-0.015-15.35l10.127-0.142L421.996,442.013"/>
	<path id="IL_Kane" inkscape:label="Kane, IL" fill="#999999" stroke="#FFFFFF" stroke-width="0.9697" d="M437.148,441.823
		l-0.949,9.903l0.234,15.4l-14.779,0.464l0.342-25.579L437.148,441.823"/>
	<path id="IL_DuPage" inkscape:label="DuPage, IL" fill="#999999" stroke="#FFFFFF" stroke-width="0.9697" d="M436.433,467.128
		l-0.234-15.4l10.045-0.516l4.337-0.135l0.493,2.104l0.504,14.187l-4.975,1.915l-10.152-2.153L436.433,467.128"/>
	<path id="IL_Cook" inkscape:label="Cook, IL" fill="#999999" stroke="#FFFFFF" stroke-width="0.9697" d="M438.83,441.795
		l19.013-0.209l3.909,6.094l1.896,6.735l0.391,1.814l0.316,1.947l0.336,1.393l0.139,0.378l0.263,0.696l1.104,2.379l2.357,4.527
		l0.217,14.052l-11.56,0.23l-10.499-9.952l-0.107-2.599l4.975-1.915l-0.504-14.187l-0.493-2.104l-4.337,0.135l-10.045,0.516
		l0.949-9.902L438.83,441.795"/>
	<path id="IL_Lake" inkscape:label="Lake, IL" fill="#999999" stroke="#FFFFFF" stroke-width="0.9697" d="M438.512,421.651
		l17.195-0.007l0.02,0.002l0.123,1.174l-0.229,5.133l-0.473,1.183l-0.178,0.192l-0.412,1.833l-0.119,1.722l0.283,1.845l0.753,2.224
		l0.556,1.395l1.812,3.243l-19.013,0.209L438.512,421.651"/>
	<path id="IL_McHenry" inkscape:label="McHenry, IL" fill="#999999" stroke="#FFFFFF" stroke-width="0.9697" d="M434.027,421.793
		l4.484-0.144l0.317,20.146l-1.682,0.028l-15.152,0.188l-5.051,0.044l-0.244-20.017L434.027,421.793"/>
	<path id="IL_Boone" inkscape:label="Boone, IL" fill="#999999" stroke="#FFFFFF" stroke-width="0.9697" d="M413.724,422.041
		l2.977-0.001l0.244,20.017l-10.127,0.142l-0.148-20.174L413.724,422.041"/>
	<path id="IL_Winnebago" inkscape:label="Winnebago, IL" fill="#999999" stroke="#FFFFFF" stroke-width="0.9697" d="M406.67,422.025
		l0.148,20.174l-10.08,0.169l-0.005-3.174l-9.654,0.139l-0.254-17.568l1.538,0.01L406.67,422.025"/>
	<path id="IL_Stephenson" inkscape:label="Stephenson, IL" fill="#999999" stroke="#FFFFFF" stroke-width="0.9697" d="
		M368.081,421.445l18.744,0.318l0.254,17.568l-12.633,0.169l-9.973,0.139l-0.227-18.235L368.081,421.445"/>
	<path id="IL_Jo_Daviess" inkscape:label="Jo Daviess, IL" fill="#999999" stroke="#FFFFFF" stroke-width="0.9697" d="
		M364.247,421.404l0.227,18.235l-17.153,0.037l-1.759-0.699l-0.757-0.565l-0.698-0.646l-0.038-0.039l-1.123-1.615l-0.027-0.064
		l-0.506-1.387l0.026-0.371l0.282-0.531l0.357-1.637l-0.008-0.225l-0.109-0.199l-2.363-3.151l-0.103-0.112l-0.017-0.019
		l-3.494-2.809l-2.783-1.688l-0.947-0.784l-0.324-0.387l-0.08-0.303l-0.019-0.328l0.027-0.135l0.668-0.982l9.214,0.179
		L364.247,421.404"/>
</g>
</svg>
