<?xml version="1.0" encoding="utf-8"?>
<!-- Generator: Adobe Illustrator 16.0.0, SVG Export Plug-In . SVG Version: 6.00 Build 0)  -->
<!DOCTYPE svg PUBLIC "-//W3C//DTD SVG 1.1//EN" "http://www.w3.org/Graphics/SVG/1.1/DTD/svg11.dtd">
<svg version="1.1"
	 id="svg6173" xmlns:dc="http://purl.org/dc/elements/1.1/" xmlns:cc="http://creativecommons.org/ns#" xmlns:rdf="http://www.w3.org/1999/02/22-rdf-syntax-ns#" xmlns:svg="http://www.w3.org/2000/svg" xmlns:sodipodi="http://sodipodi.sourceforge.net/DTD/sodipodi-0.dtd" xmlns:inkscape="http://www.inkscape.org/namespaces/inkscape" inkscape:output_extension="org.inkscape.output.svg.inkscape" sodipodi:docname="Michigan GOP.svg" inkscape:version="0.48.2 r9819" sodipodi:version="0.32"
	 xmlns="http://www.w3.org/2000/svg" xmlns:xlink="http://www.w3.org/1999/xlink" x="0px" y="0px" width="287.031px"
	 height="312.668px" viewBox="0 0 287.031 312.668" enable-background="new 0 0 287.031 312.668" xml:space="preserve">
<defs>
	
	
		<inkscape:perspective  id="perspective6181" inkscape:vp_z="744.09448 : 526.18109 : 1" inkscape:vp_y="0 : 1000 : 0" inkscape:vp_x="0 : 526.18109 : 1" sodipodi:type="inkscape:persp3d" inkscape:persp3d-origin="372.04724 : 350.78739 : 1">
		</inkscape:perspective>
</defs>
<sodipodi:namedview  showguides="true" showgrid="false" inkscape:cy="526.18109" inkscape:cx="372.04724" inkscape:zoom="0.48272354" objecttolerance="10" guidetolerance="10" gridtolerance="10000" borderopacity="1.0" bordercolor="#666666" pagecolor="#ffffff" id="base" inkscape:window-maximized="1" inkscape:window-y="-8" inkscape:window-x="-8" inkscape:window-height="706" inkscape:window-width="1366" inkscape:current-layer="layer1" inkscape:document-units="px" inkscape:pageshadow="2" inkscape:pageopacity="0.0" inkscape:guide-bbox="true">
	</sodipodi:namedview>
<g id="layer1" transform="translate(-294.328,-306.95558)" inkscape:label="Layer 1" inkscape:groupmode="layer">
	<path id="MI_Gogebic" inkscape:label="Gogebic, MI" fill="#999999" stroke="#FFFFFF" stroke-width="0.9278" d="M321.574,383.937
		l0.828-0.026l0.082,7.789l3.919,3.901l11.789-0.25l0.177,7.793l11.78-0.281l0.255,10.663l-2.175-1.199l-2.116-0.831l-1.319-0.35
		l-1.688-0.43l-22.458-5.757l-3.162-0.818l-2.879-0.756l-5.979-8.125l-3.479-2.117l2.171-1.594l0.635-0.317l5.112-1.767l1.971-0.457
		l1.727-0.63l0.523-0.277l1.006-0.869l2.388-2.152L321.574,383.937"/>
	<path id="MI_Ontonagon" inkscape:label="Ontonagon, MI" fill="#999999" stroke="#FFFFFF" stroke-width="0.9278" d="
		M351.144,371.281l0.332,12.05l2.142-0.055l0.087,3.856l-3.901,0.063l0.064,5.125l0.17,6.635l0.112,3.907l-11.78,0.281l-0.177-7.793
		l-11.789,0.25l-3.919-3.901l-0.082-7.789l-0.828,0.026l1.247-1.398l0.525-0.387l1.267-0.666l2.198-0.575l1.45-0.155l0.411,0.084
		l0.571,0.249l6.397-0.766l0.678-0.202l1.329-0.636l11.506-6.497L351.144,371.281"/>
	<path id="MI_Monroe" inkscape:label="Monroe, MI" fill="#999999" stroke="#FFFFFF" stroke-width="0.9278" d="M537.247,585.88
		l3.924-0.682l4.188-0.398l0.278,0.141l3.635,2.505l-3.999,4.614l-1.957,3.135l-1.551,2.523l-0.153,0.268l-0.06,0.201l-0.11,3.498
		l-10.346,1.241l-1.667-16.27L537.247,585.88"/>
	<path id="MI_Lenawee" inkscape:label="Lenawee, MI" fill="#999999" stroke="#FFFFFF" stroke-width="0.9278" d="M529.429,586.656
		l1.667,16.27l-3.925,0.491l-16.073,1.836l-1.308-16.663l7.744-0.531L529.429,586.656"/>
	<path id="MI_Hillsdale" inkscape:label="Hillsdale, MI" fill="#999999" stroke="#FFFFFF" stroke-width="0.9278" d="M509.79,588.59
		l1.308,16.663l-1.287,0.142l-13.626,1.412l-0.843-2.858l-1.021-14.215l3.906-0.169L509.79,588.59"/>
	<path id="MI_Branch" inkscape:label="Branch, MI" fill="#999999" stroke="#FFFFFF" stroke-width="0.9278" d="M478.698,590.821
		l15.622-1.087l1.021,14.215l-12.473,0.854l-3.21,0.188L478.698,590.821"/>
	<path id="MI_St._Joseph" inkscape:label="St. Joseph, MI" fill="#999999" stroke="#FFFFFF" stroke-width="0.9278" d="
		M463.031,591.895l15.667-1.074l0.961,14.17l-12.344,0.813l-4.421,0.257L463.031,591.895"/>
	<path id="MI_Cass" inkscape:label="Cass, MI" fill="#999999" stroke="#FFFFFF" stroke-width="0.9278" d="M447.633,592.669
		l15.398-0.774l-0.137,14.166l-9.105,0.479l-5.485,0.317L447.633,592.669"/>
	<path id="MI_Berrien" inkscape:label="Berrien, MI" fill="#999999" stroke="#FFFFFF" stroke-width="0.9278" d="M442.463,585.122
		l5.17,7.547l0.671,14.188l-10.017,0.543l-10.104,0.477l0.016-0.027l1.534-1.164l1.932-1.683l1.217-1.225l1.894-2.331l0.671-1.143
		l0.466-1.12l0.735-2.677l1.966-4.899l0.735-1.371L442.463,585.122"/>
	<path id="MI_Wayne" inkscape:label="Wayne, MI" fill="#999999" stroke="#FFFFFF" stroke-width="0.9278" d="M551.018,568.177
		l7.063-0.782l-0.388,2.419l-0.145,0.422l-0.85,1.784l-1.123,0.674l-0.942,0.415l-0.85,0.184l-0.127,0.019l-1.479,0.674l-0.48,0.469
		l-0.489,0.881l-0.847,2.432l0.007,0.155l-0.008,0.147l0.066,2.62l-0.439,4.115l-0.716,2.642l-3.635-2.505l-0.278-0.141
		l-4.188,0.398l-3.924,0.682l-1.728-15.833L551.018,568.177"/>
	<path id="MI_Jackson" inkscape:label="Jackson, MI" fill="#999999" stroke="#FFFFFF" stroke-width="0.9278" d="M515.997,572.067
		l0.317-0.013l1.22,16.005l-7.744,0.531l-11.563,0.975l-1.426-15.973l3.917-0.256L515.997,572.067"/>
	<path id="MI_Calhoun" inkscape:label="Calhoun, MI" fill="#999999" stroke="#FFFFFF" stroke-width="0.9278" d="M485.061,574.439
		l11.74-0.847l1.426,15.973l-3.906,0.169l-15.622,1.087l-1.197-15.807L485.061,574.439"/>
	<path id="MI_Kalamazoo" inkscape:label="Kalamazoo, MI" fill="#999999" stroke="#FFFFFF" stroke-width="0.9278" d="
		M469.379,575.439l8.122-0.425l1.197,15.807l-15.667,1.074l-0.999-15.98L469.379,575.439"/>
	<path id="MI_Van_Buren" inkscape:label="Van Buren, MI" fill="#999999" stroke="#FFFFFF" stroke-width="0.9278" d="
		M445.085,576.927l16.947-1.013l0.999,15.98l-15.398,0.774l-5.17-7.547L445.085,576.927"/>
	<path id="MI_Allegan" inkscape:label="Allegan, MI" fill="#999999" stroke="#FFFFFF" stroke-width="0.9278" d="M460.485,560.14
		l7.854-0.476l1.04,15.774l-7.347,0.476l-16.947,1.013l1.3-15.953L460.485,560.14"/>
	<path id="MI_Barry" inkscape:label="Barry, MI" fill="#999999" stroke="#FFFFFF" stroke-width="0.9278" d="M483.93,558.554
		l1.131,15.885l-7.56,0.575l-8.122,0.425l-1.04-15.774l7.798-0.571L483.93,558.554"/>
	<path id="MI_Eaton" inkscape:label="Eaton, MI" fill="#999999" stroke="#FFFFFF" stroke-width="0.9278" d="M491.772,558.029
		l7.746-0.507l1.2,15.814l-3.917,0.256l-11.74,0.847l-1.131-15.885L491.772,558.029"/>
	<path id="MI_Ingham" inkscape:label="Ingham, MI" fill="#999999" stroke="#FFFFFF" stroke-width="0.9278" d="M507.41,556.667
		l6.791-0.538l1.796,15.938l-15.279,1.27l-1.2-15.814L507.41,556.667"/>
	<path id="MI_Livingston" inkscape:label="Livingston, MI" fill="#999999" stroke="#FFFFFF" stroke-width="0.9278" d="
		M529.77,554.621l2.035,15.871l-15.49,1.562l-0.317,0.013l-1.796-15.938l7.767-0.797L529.77,554.621"/>
	<path id="MI_Oakland" inkscape:label="Oakland, MI" fill="#999999" stroke="#FFFFFF" stroke-width="0.9278" d="M548.693,548.197
		l2.324,19.98l-15.498,1.87l-3.715,0.445l-2.035-15.871l-0.425-4.007l3.89-0.408l3.879-0.639L548.693,548.197"/>
	<path id="MI_Macomb" inkscape:label="Macomb, MI" fill="#999999" stroke="#FFFFFF" stroke-width="0.9278" d="M552.524,547.623
		l8.063-0.889l1.135,8.646l0.123,1.082l-3.765,10.933l-7.063,0.782l-2.324-19.98L552.524,547.623"/>
	<path id="MI_St._Clair" inkscape:label="St. Clair, MI" fill="#999999" stroke="#FFFFFF" stroke-width="0.9278" d="M551.07,535.853
		l16.144-2.117l0.066,0.288l0.557,1.944l0.223,0.693l2.479,4.085l-0.837,12.641l-0.454,4.435l-0.198,1.098l-0.127,0.297l-1.79,2.607
		l-0.164,0.182l-0.565,0.135l-1.899,0.284l-1.728-1.875l-0.104-0.321l0.659-1.393l0.645-0.524l0.799,0.215l0.438-0.556l0.139-0.243
		l0.067-0.391l-0.06-0.433l-0.268-0.347l-0.154-0.085l-1.346-0.399l-0.375-0.1l-0.51,0.07l-0.811,0.394l-0.051,0.025l-0.123-1.082
		l-1.135-8.646l-8.063,0.889L551.07,535.853"/>
	<path id="MI_Lapeer" inkscape:label="Lapeer, MI" fill="#999999" stroke="#FFFFFF" stroke-width="0.9278" d="M535.558,534.035
		l-0.041-0.448l3.145-4.35l7.651-0.862l0.204,1.944l3.888-0.385l0.666,5.918l1.453,11.771l-3.83,0.573l-11.58,1.371L535.558,534.035
		"/>
	<path id="MI_Genesee" inkscape:label="Genesee, MI" fill="#999999" stroke="#FFFFFF" stroke-width="0.9278" d="M527.845,534.738
		l7.713-0.702l1.556,15.532l-3.879,0.639l-3.89,0.408l0.425,4.007l-7.802,0.711l-1.461-15.957L527.845,534.738"/>
	<path id="MI_Shiawassee" inkscape:label="Shiawassee, MI" fill="#999999" stroke="#FFFFFF" stroke-width="0.9278" d="
		M520.507,539.375l1.461,15.957l-7.767,0.797l-6.791,0.538l-1.293-15.519l-0.026-0.459L520.507,539.375"/>
	<path id="MI_Clinton" inkscape:label="Clinton, MI" fill="#999999" stroke="#FFFFFF" stroke-width="0.9278" d="M506.117,541.149
		l1.293,15.519l-7.893,0.854l-7.746,0.507l-1.085-15.809L506.117,541.149"/>
	<path id="MI_Ionia" inkscape:label="Ionia, MI" fill="#999999" stroke="#FFFFFF" stroke-width="0.9278" d="M475.035,543.253
		l15.651-1.033l1.085,15.809l-7.842,0.525l-7.793,0.539L475.035,543.253"/>
	<path id="MI_Ottawa" inkscape:label="Ottawa, MI" fill="#999999" stroke="#FFFFFF" stroke-width="0.9278" d="M459.036,540.304
		l0.602,7.888l0.456,5.32l0.392,6.628l-14.101,0.834l-2.945-15.821l4.835-0.254l7.17-0.464l-0.286-3.942L459.036,540.304"/>
	<path id="MI_Muskegon" inkscape:label="Muskegon, MI" fill="#999999" stroke="#FFFFFF" stroke-width="0.9278" d="M436.33,529.382
		l13.863-0.515l0.472,7.889l8.157-0.444l0.214,3.992l-3.878,0.188l0.286,3.942l-7.17,0.464l-4.835,0.254l-0.341-0.808l-1.314-2.618
		l-2.908-5.372l-0.445-0.985l-1.031-2.59l-0.523-1.594L436.33,529.382"/>
	<path id="MI_Kent" inkscape:label="Kent, MI" fill="#999999" stroke="#FFFFFF" stroke-width="0.9278" d="M458.822,536.312
		l7.477-0.526l8.221-0.5l0.516,7.968l1.102,15.84l-7.798,0.571l-7.854,0.476l-0.392-6.628l-0.456-5.32l-0.602-7.888L458.822,536.312
		"/>
	<path id="MI_Montcalm" inkscape:label="Montcalm, MI" fill="#999999" stroke="#FFFFFF" stroke-width="0.9278" d="M489.296,526.474
		l1.391,15.746l-15.651,1.033l-0.516-7.968l-8.221,0.5l-0.471-7.902l15.641-0.889L489.296,526.474"/>
	<path id="MI_Gratiot" inkscape:label="Gratiot, MI" fill="#999999" stroke="#FFFFFF" stroke-width="0.9278" d="M497.107,525.933
		l7.777-0.572l1.207,15.329l0.026,0.459l-15.431,1.071l-1.391-15.746L497.107,525.933"/>
	<path id="MI_Saginaw" inkscape:label="Saginaw, MI" fill="#999999" stroke="#FFFFFF" stroke-width="0.9278" d="M526.797,523.081
		l1.048,11.656l-7.338,4.638l-14.416,1.314l-1.207-15.329l-0.039-0.716l6.507-0.492l-0.209-3.939l3.853-0.228l1.241,1.235
		l2.353,0.508l4.185-0.316l1.383,1.207L526.797,523.081"/>
	<path id="MI_Sanilac" inkscape:label="Sanilac, MI" fill="#999999" stroke="#FFFFFF" stroke-width="0.9278" d="M545.023,512.571
		l16.604-2.175l0.113,0.94l0.441,3.001l0.147,0.581l3.981,16.283l0.194,0.565l0.71,1.969l-16.144,2.117l-0.666-5.918l-3.888,0.385
		l-0.204-1.944L545.023,512.571"/>
	<path id="MI_Tuscola" inkscape:label="Tuscola, MI" fill="#999999" stroke="#FFFFFF" stroke-width="0.9278" d="M533.419,511.116
		l0.265,2.788l11.339-1.334l1.29,15.805l-7.651,0.862l-3.145,4.35l0.041,0.448l-7.713,0.702l-1.048-11.656l-0.454-5.348
		L533.419,511.116"/>
	<path id="MI_Huron" inkscape:label="Huron, MI" fill="#999999" stroke="#FFFFFF" stroke-width="0.9278" d="M545.023,512.571
		l-11.339,1.334l-0.265-2.788l0.063-0.219l0.444-1.772l1.042-2.833l4.223-6.612l9.164-5.229l1.649-0.349l4.162,1.789l1.643,1.093
		l0.258,0.266l1.116,1.781l2.574,4.14l0.401,0.938l0.769,2.781l0.301,1.28l0.397,2.226L545.023,512.571"/>
	<path id="MI_Bay" inkscape:label="Bay, MI" fill="#999999" stroke="#FFFFFF" stroke-width="0.9278" d="M509.709,500.8l3.934-0.315
		l0.335,3.886l4.327-0.3l-0.574,6.902l4.689,4.97l3.923,1.791l0.454,5.348l-2.641-0.462l-1.383-1.207l-4.185,0.316l-2.353-0.508
		l-1.241-1.235l-3.853,0.228l-0.854-11.649L509.709,500.8"/>
	<path id="MI_Midland" inkscape:label="Midland, MI" fill="#999999" stroke="#FFFFFF" stroke-width="0.9278" d="M496.026,510.107
		l7.807-0.524l-0.049-0.667l6.504-0.352l0.854,11.649l0.209,3.939l-6.507,0.492l0.039,0.716l-7.777,0.572L496.026,510.107"/>
	<path id="MI_Isabella" inkscape:label="Isabella, MI" fill="#999999" stroke="#FFFFFF" stroke-width="0.9278" d="M496.026,510.107
		l1.08,15.826l-7.811,0.541l-7.827,0.521l-1.165-15.749L496.026,510.107"/>
	<path id="MI_Mecosta" inkscape:label="Mecosta, MI" fill="#999999" stroke="#FFFFFF" stroke-width="0.9278" d="M464.863,512.141
		l15.44-0.896l1.165,15.749l-15.641,0.889L464.863,512.141"/>
	<path id="MI_Newaygo" inkscape:label="Newaygo, MI" fill="#999999" stroke="#FFFFFF" stroke-width="0.9278" d="M464.863,512.141
		l0.965,15.742l0.471,7.902l-7.477,0.526l-8.157,0.444l-0.472-7.889l-0.866-15.818L464.863,512.141"/>
	<path id="MI_Oceana" inkscape:label="Oceana, MI" fill="#999999" stroke="#FFFFFF" stroke-width="0.9278" d="M436.526,513.587
		l12.802-0.538l0.866,15.818l-13.863,0.515l-2.138-4.638l-0.348-0.745l-0.359-1.08l-0.106-0.701l-0.027-0.525l0.053-0.648
		l0.248-0.893l0.571-0.971l0.869-1.241l0.623-1.015l0.465-1.167l0.215-0.815l0.141-1.214L436.526,513.587"/>
	<path id="MI_Arenac" inkscape:label="Arenac, MI" fill="#999999" stroke="#FFFFFF" stroke-width="0.9278" d="M528.609,491.684
		l0.012,1.695l-0.038,1.155l-0.181,2.053l-2.891,3.093l-2.679,0.615l-0.78,0.057l-1.358-0.065l-0.589,0.4l-0.204,0.211l-0.676,0.872
		l-0.822,1.94l-0.099,0.36l-4.327,0.3l-0.335-3.886l-3.934,0.315l-0.551-7.48l9.124-0.714L528.609,491.684"/>
	<path id="MI_Gladwin" inkscape:label="Gladwin, MI" fill="#999999" stroke="#FFFFFF" stroke-width="0.9278" d="M509.158,493.32
		l1.13,15.244l-6.504,0.352l0.049,0.667l-7.807,0.524l-1.193-15.676l7.78-0.571L509.158,493.32"/>
	<path id="MI_Clare" inkscape:label="Clare, MI" fill="#999999" stroke="#FFFFFF" stroke-width="0.9278" d="M486.945,494.951
		l7.888-0.521l1.193,15.676l-15.723,1.139l-0.999-15.92L486.945,494.951"/>
	<path id="MI_Osceola" inkscape:label="Osceola, MI" fill="#999999" stroke="#FFFFFF" stroke-width="0.9278" d="M479.305,495.325
		l0.999,15.92l-15.44,0.896l-1.052-15.842l7.456-0.479L479.305,495.325"/>
	<path id="MI_Lake" inkscape:label="Lake, MI" fill="#999999" stroke="#FFFFFF" stroke-width="0.9278" d="M463.812,496.299
		l1.052,15.842l-15.536,0.908l-1.01-15.98l7.178-0.256L463.812,496.299"/>
	<path id="MI_Mason" inkscape:label="Mason, MI" fill="#999999" stroke="#FFFFFF" stroke-width="0.9278" d="M437.118,497.193
		l11.199-0.124l1.01,15.98l-12.802,0.538l-1.398-6.839l0.732-6.813L437.118,497.193"/>
	<path id="MI_Iosco" inkscape:label="Iosco, MI" fill="#999999" stroke="#FFFFFF" stroke-width="0.9278" d="M516.963,476.909
		l18.314-1.628l0.113,1.146l0.05,3.238l-0.583,3.823l-2.788,2.925l-0.591-0.204l-0.527-0.009l-0.675,0.207l-0.258,0.159
		l-0.457,0.579l-0.38,0.65l-0.286,0.968l-0.286,2.92l-10.327,0.922L516.963,476.909"/>
	<path id="MI_Ogemaw" inkscape:label="Ogemaw, MI" fill="#999999" stroke="#FFFFFF" stroke-width="0.9278" d="M516.963,476.909
		l1.319,15.696l-9.124,0.714l-6.545,0.54l-1.217-15.691L516.963,476.909"/>
	<path id="MI_Roscommon" inkscape:label="Roscommon, MI" fill="#999999" stroke="#FFFFFF" stroke-width="0.9278" d="
		M485.876,479.109l15.521-0.94l1.217,15.691l-7.78,0.571l-7.888,0.521L485.876,479.109"/>
	<path id="MI_Missaukee" inkscape:label="Missaukee, MI" fill="#999999" stroke="#FFFFFF" stroke-width="0.9278" d="
		M485.876,479.109l1.069,15.843l-7.641,0.374l-8.037,0.495l-0.979-15.743L485.876,479.109"/>
	<path id="MI_Wexford" inkscape:label="Wexford, MI" fill="#999999" stroke="#FFFFFF" stroke-width="0.9278" d="M454.693,481
		l15.596-0.923l0.979,15.743l-7.456,0.479l-8.316,0.514L454.693,481"/>
	<path id="MI_Manistee" inkscape:label="Manistee, MI" fill="#999999" stroke="#FFFFFF" stroke-width="0.9278" d="M454.693,481
		l0.803,15.813l-7.178,0.256l-11.199,0.124l3.421-7.763l0.409-2.565l0.075-0.897l0.229-4.431L454.693,481"/>
	<path id="MI_Alcona" inkscape:label="Alcona, MI" fill="#999999" stroke="#FFFFFF" stroke-width="0.9278" d="M515.667,461.182
		l18.179-1.603l0.766,1.258l1.317,5.168l-0.02,1.125l-0.632,8.151l-18.314,1.628L515.667,461.182"/>
	<path id="MI_Oscoda" inkscape:label="Oscoda, MI" fill="#999999" stroke="#FFFFFF" stroke-width="0.9278" d="M500.181,462.445
		l15.486-1.263l1.296,15.728l-15.566,1.259L500.181,462.445"/>
	<path id="MI_Crawford" inkscape:label="Crawford, MI" fill="#999999" stroke="#FFFFFF" stroke-width="0.9278" d="M484.898,463.365
		l15.283-0.921l1.216,15.724l-15.521,0.94L484.898,463.365"/>
	<path id="MI_Kalkaska" inkscape:label="Kalkaska, MI" fill="#999999" stroke="#FFFFFF" stroke-width="0.9278" d="M484.898,463.365
		l0.979,15.743l-15.588,0.969l-0.836-13.611l0.168-1.575l0.057-0.222l0.972-0.396L484.898,463.365"/>
	<path id="MI_Grand_Traverse" inkscape:label="Grand Treverse, MI" fill="#999999" stroke="#FFFFFF" stroke-width="0.9278" d="
		M465.993,464.159l3.459,2.307l0.836,13.611L454.693,481l-0.61-11.838l5.595-0.396L465.993,464.159"/>
	<path id="MI_Benzie" inkscape:label="Benzie, MI" fill="#999999" stroke="#FFFFFF" stroke-width="0.9278" d="M454.082,469.162
		l0.61,11.838l-13.439,0.536l0.229-1.432l0.074-0.806l-0.225-1.245l-0.253-0.649l-0.803-1.734l-0.209-0.692l0.02-1.044l0.044-0.251
		l0.191-0.325l0.51-0.354l1.891-0.764l2.107-0.583l0.514-0.514l0.326-0.775l0.104-0.533l0.002-0.397L454.082,469.162"/>
	<path id="MI_Leelanau" inkscape:label="Leelanau, MI" fill="#999999" stroke="#FFFFFF" stroke-width="0.9278" d="M459.677,468.766
		l-5.595,0.396l-8.308,0.274l-0.157-3.937l1.176-1.973l2.725-2.28l5.317-3.083l0.701-1.68l3.722-6.368l2.089-1.214l0.33,0.002
		l0.512,0.911l-2.294,12.238l-0.128,0.089l-0.545,1.732l-0.085,0.457l-0.037,1.124l0.088,0.799L459.677,468.766"/>
	<path id="MI_Alpena" inkscape:label="Alpena, MI" fill="#999999" stroke="#FFFFFF" stroke-width="0.9278" d="M530.388,444.032
		l2.442,2.957l2.124,4.859l-0.163,0.164l-0.541-0.086l-1.732-0.545l-0.584-0.362l-0.354-0.51l-1.053-0.273l-1.042,0.664
		l-0.234,0.322l-0.311,0.745l-0.021,0.157l0.289,1.868l0.347,1.698l0.211,0.502l0.205,0.345l0.272,0.267l1.095,0.988l2.509,1.786
		l-18.179,1.603l-0.599-7.004l0.045-0.568l0.159-0.309l-0.622-7.751L530.388,444.032"/>
	<path id="MI_Montmorency" inkscape:label="Montmorency, MI" fill="#999999" stroke="#FFFFFF" stroke-width="0.9278" d="
		M514.651,445.55l0.622,7.751l-0.159,0.309l-0.045,0.568l0.599,7.004l-15.486,1.263l-1.006-15.568l3.835-0.292L514.651,445.55"/>
	<path id="MI_Otsego" inkscape:label="Otsego, MI" fill="#999999" stroke="#FFFFFF" stroke-width="0.9278" d="M487.456,447.573
		l11.719-0.696l1.006,15.568l-15.283,0.921l-1.095-11.644L487.456,447.573"/>
	<path id="MI_Antrim" inkscape:label="Antrim, MI" fill="#999999" stroke="#FFFFFF" stroke-width="0.9278" d="M466.587,448.714
		l0.377-0.031l4.88-0.22l0.188,3.273l1.227,0.615l5.964-0.406l4.58-0.224l1.095,11.644l-14.249,0.907l-0.972,0.396l-0.057,0.222
		l-0.168,1.575l-3.459-2.307l0.28-0.62l0.547-1.401l0.282-0.891l0.375-3.088l0.168-3.228l-0.148-2.164L466.587,448.714"/>
	<path id="MI_Charlevoix" inkscape:label="Charlevoix, MI" fill="#999999" stroke="#FFFFFF" stroke-width="0.9278" d="
		M476.143,440.933l2.072,3.021l1.614,0.093l7.39-0.418l0.237,3.944l-3.653,4.149l-4.58,0.224l-5.964,0.406l-1.227-0.615
		l-0.188-3.273l-4.88,0.22l-0.377,0.031l-0.134-1.245l0.446-1.656l0.488-0.563l0.939-1.003l0.494-0.465l2.994-2.187l0.403-0.202
		l1.662-0.538L476.143,440.933"/>
	<path id="MI_Presque_Isle" inkscape:label="Presque Isle, MI" fill="#999999" stroke="#FFFFFF" stroke-width="0.9278" d="
		M530.388,444.032l-15.737,1.518l-11.641,1.034l-0.817-10.536l-0.795-8.759l1.51-0.148l2.742,3.637l10.613,4.766l6.841,2.475
		l0.928,0.172l1.778-0.121l0.537-0.544l0.246,0.059l1.542,1.932L530.388,444.032"/>
	<path id="MI_Cheboygan" inkscape:label="Cheboygan, MI" fill="#999999" stroke="#FFFFFF" stroke-width="0.9278" d="
		M487.219,443.628l-1.564-22.525l0.587,0.95l8.419,4.546l2.696-0.329l1.453-0.518l3.719,1.071l0.379,0.317l-1.51,0.148l0.795,8.759
		l0.817,10.536l-3.835,0.292l-11.719,0.696L487.219,443.628"/>
	<path id="MI_Mackinac" inkscape:label="Mackinac, MI" fill="#999999" stroke="#FFFFFF" stroke-width="0.9278" d="M448.605,402.782
		l19.722-1.261l3.914-0.271l0.282,3.946l23.561-1.644l3.515,3.675l0.953,3.55l3.981,0.303l-6.718,1.499l-6.573-1.766l-6.289,3.169
		l-8.892-2.335l-3.772-1.341l-6.608-1.687l-2.429-0.244l-0.479,0.008l-2.279,0.364l-0.39,0.125l-0.279,0.177l-0.562,0.56
		l-1.859,2.348l-0.369,1.017l-1.075,1.643l-0.27,0.317l-1.034,0.365l-5.372-0.058L448.605,402.782"/>
	<path id="MI_Chippewa" inkscape:label="Chippewa, MI" fill="#999999" stroke="#FFFFFF" stroke-width="0.9278" d="M514.926,409.226
		l0.165-0.15l0.3-0.667l-0.029-0.621l-0.355-0.857l-0.734-0.177l-0.553-0.709l-0.477-1.343l0.237-0.238l0.113-0.012l5.604-0.234
		l0.301,0.047l1.438,0.464l3.512,3.944l0.244,0.329l0.037,0.178l-0.966,2.584l-0.189,0.275l-0.266,0.244l-1.108,0.372l-5.365-0.275
		l-0.979-0.779l-0.427-0.622l-0.491-0.611l-0.034-0.667L514.926,409.226 M468.326,401.522l-1.481-22.996l1.986-0.491l4.274-0.141
		l0.994,1.396l-0.353,0.743l-0.178,0.688l-0.042,0.568l-0.335,7.184l0.064,0.542l0.188,0.47l0.551,0.691l0.278,0.203l0.328,0.129
		l5.932,1.207l6.903-1.058l4.989-1.818l0.739-0.598l6.96-2.282l1.717,0.214l0.327,0.062l0.403,0.544l0.241,0.599l-0.401,6.007
		l-0.371,8.649l3.64,4l1.312,1.38l1.289,0.903l2.935,1.3l0.718,0.145l0.321,1.268l-0.319,1.001l-4.283-0.317l-2.319-0.193
		l-0.495-0.232l-0.307-0.204l-3.981-0.303l-0.953-3.55l-3.515-3.675l-23.561,1.644l-0.282-3.946L468.326,401.522"/>
	<path id="MI_Luce" inkscape:label="Luce, MI" fill="#999999" stroke="#FFFFFF" stroke-width="0.9278" d="M447.924,391.031
		l-0.432-8.344l2.153,0.277l1.396,0.086l5.113-0.181l1.396-0.073l1.023-0.14l0.857-0.261l3.403-1.721l4.01-2.15l1.481,22.996
		l-19.722,1.261L447.924,391.031"/>
	<path id="MI_Schoolcraft" inkscape:label="Schoolcraft, MI" fill="#999999" stroke="#FFFFFF" stroke-width="0.9278" d="
		M447.924,391.031l0.681,11.751l0.678,12.46l-1.727,1.011l-4.749-0.499l-0.731-0.018l-3.203,0.333l-0.739,0.231l-1.783,0.866
		l-1.125,1.279l-0.241,0.413l-0.138,2.467l-0.469,2.468l-0.366,0.379l-2.34,1.455l-0.502,0.197l-0.125-0.037l-0.298-6.244
		l-0.857-3.911l-0.743-7.866l-3.954,0.155l-0.396-7.87l7.868-0.328l-0.396-7.867L447.924,391.031"/>
	<path id="MI_Alger" inkscape:label="Alger, MI" fill="#999999" stroke="#FFFFFF" stroke-width="0.9278" d="M447.924,391.031
		l-15.655,0.825l0.396,7.867l-7.868,0.328l0.396,7.87l-15.765,0.753l-0.686-15.188l1.187-0.958l1.834-0.91l0.27,0.027l1.003,0.225
		l0.422,0.432l0.616,1.427l2.063,1.845l0.279,0.187l0.801,0.102l8.202-1.726l5.908-4.816l6.115-4.44l8.159-1.841l1.892-0.352
		L447.924,391.031"/>
	<path id="MI_Delta" inkscape:label="Delta, MI" fill="#999999" stroke="#FFFFFF" stroke-width="0.9278" d="M409.427,408.675
		l15.765-0.753l3.954-0.155l0.743,7.866l0.857,3.911l0.298,6.244l-1.729,0.345l-0.697-4.536l-7.982,3.052l-5.923,2.153l-0.277-1.759
		l-0.262-0.821l-0.574-0.932l-0.446-0.293l-0.398,0.093l-0.261,0.146l-0.358,0.569l-5.316,10.809l-0.843,1.703l-0.021,0.063
		l-2.017,0.092l-0.613-15.743l-0.919-1.279l-0.574-2.582l3.939-0.156l-0.3-7.862L409.427,408.675"/>
	<path id="MI_Menominee" inkscape:label="Menominee, MI" fill="#999999" stroke="#FFFFFF" stroke-width="0.9278" d="M393.956,417.15
		l7.876-0.282l0.574,2.582l0.919,1.279l0.613,15.743l2.017-0.092l-0.693,2.249l-1.169,3.208l-3.218,6.425l-2.215,3.22l-2.259,5.947
		l-1.428-0.294l-0.814-0.181l-0.031-0.016l-2.37-2.764l-0.132-0.246l-0.236-0.943l-0.016-0.032l-2.146-13.599l0.081-8.178
		l-0.891-1.215l-0.077-0.081l-0.048-0.037l-0.576-0.518l4.16-0.181l-0.29-7.939l2.51-0.103L393.956,417.15"/>
	<path id="MI_Dickinson" inkscape:label="Dickinson, MI" fill="#999999" stroke="#FFFFFF" stroke-width="0.9278" d="
		M377.738,405.963l15.774-0.598l0.443,11.784l0.142,3.954l-2.51,0.103l0.29,7.939l-4.16,0.181l-7.381-2.374l-0.431,0.042
		l-0.031-0.016l-0.423-0.133l-0.264-0.076l-1.159-1.038l-0.03-0.019l-0.185-0.406l0.053-0.156l0.02-0.03l0.589-0.683l0.229-0.164
		l0.54-0.688l0.479-0.736l-0.038-0.16l-0.092-0.148l-0.865-1.375l-0.473-0.336L377.738,405.963"/>
	<path id="MI_Marquette" inkscape:label="Marquette, MI" fill="#999999" stroke="#FFFFFF" stroke-width="0.9278" d="
		M378.983,375.835l4.486-0.035l2.755,0.865l0.979,0.333l4.761,2.88l1.236,1.264l0.205,1.34l0.282,1.013l6.443,9.051l0.252,0.312
		l0.489,0.435l0.49,0.264l1.284,0.348l1.646,0.097l4.098-0.434l0.353-0.078l0.686,15.188l-3.955,0.174l0.3,7.862l-3.939,0.156
		l-7.876,0.282l-0.443-11.784l-15.774,0.598l-0.253-7.814l-0.367-11.687l3.882-0.177l-0.135-3.826l-0.075-0.036l-1.588,0.036
		L378.983,375.835"/>
	<path id="MI_Iron" inkscape:label="Iron, MI" fill="#999999" stroke="#FFFFFF" stroke-width="0.9278" d="M359.815,398.686
		l17.671-0.537l0.253,7.814l0.519,14.866l-0.72-0.531l-1.175-0.642l-0.78-0.164l-0.069-0.021l-9.148-1.602l-5.563,0.316L360.208,417
		l-7.933-2.447l-1.871-1.027l-0.255-10.663l-0.112-3.907L359.815,398.686"/>
	<path id="MI_Keweenaw" inkscape:label="Keweenaw, MI" fill="#999999" stroke="#FFFFFF" stroke-width="0.9278" d="M357.489,322.314
		l0.245-0.417l0.062-0.106l0.505-0.549l1.303-0.745l2.014-0.961l3.779-0.833l0.153,0.465l-0.035,0.445l-4.737,5.176l-2.706,2.197
		l-7.27,5.608l-6.451,2.969l-1.024,0.234l-1.019-0.32l-1.383-0.872l-0.661-1.081l0.252-0.558l0.971-1.159l1.064-0.979l2.537-1.541
		l3.056-1.624l6.943-3.897L357.489,322.314 M363.878,359.486l1.577-2.494l1.217-1.446l0.886-0.622l5.218-3.06l1.083-0.437
		l4.36-0.978l1.886-0.228l1.535-0.021l3.959,0.098l1.4,0.515l0.819,0.497l0.471,0.389l0.229,1.517l-0.039,0.22l-3.169,0.862
		l-0.363-0.049l-4.247,0.68l-4.951,6.26l-0.922,1.081l-1.991,0.807l-2.192,0.084l-0.145-3.891L363.878,359.486"/>
	<path id="MI_Houghton" inkscape:label="Houghton, MI" fill="#999999" stroke="#FFFFFF" stroke-width="0.9278" d="M363.878,359.486
		l6.62-0.216l0.145,3.891l2.192-0.084l-6.495,11.605l-3.226,0.494l-3.829,4.031l0.529,19.479l-9.777,0.27l-0.17-6.635l-0.064-5.125
		l3.901-0.063l-0.087-3.856l-2.142,0.055l-0.332-12.05l0.848-2.464l0.444-0.661l2.252-1.902l3.503-2.956l0.821-0.671
		L363.878,359.486"/>
	<path id="MI_Baraga" inkscape:label="Baraga, MI" fill="#999999" stroke="#FFFFFF" stroke-width="0.9278" d="M378.983,375.835
		l0.22,6.624l1.588-0.036l0.075,0.036l0.135,3.826l-3.882,0.177l0.367,11.687l-17.671,0.537l-0.529-19.479l3.829-4.031l3.226-0.494
		l-0.766,2.784l-0.172,2.45l0.041,0.256l0.315,0.888l0.372,0.872l0.744-0.026l0.127-0.311l0.565-0.845l1.623-2.046l3.529-3.427
		l2.728-1.689l0.353-0.096l0.339,0.192L378.983,375.835"/>
	<path id="MI_Washtenaw" inkscape:label="Washtenaw, MI" fill="#999999" stroke="#FFFFFF" stroke-width="0.0928" d="M535.52,570.047
		l1.728,15.833l-7.818,0.776l-11.895,1.402l-1.22-16.005l15.49-1.562L535.52,570.047"/>
	<path id="MI_Emmet" inkscape:label="Emmet, MI" fill="#999999" stroke="#FFFFFF" stroke-width="0.0928" d="M487.219,443.628
		l-7.39,0.418l-1.614-0.093l-2.072-3.021l1.605-0.175l1.979-0.551l1.327-0.875l0.084-0.439l-0.026-0.317l-0.131-0.354l-0.21-0.169
		l-1.892-0.222l-0.295,0.211l-1.627-0.414l-0.991-0.952l-0.639-0.759l-0.812-1.971l-0.243-0.793l-0.224-1.326l0.014-0.284
		l0.187-0.498l1.049-2.042l0.39-0.487l3.513-3.445l4.455-1.988l0.332-0.252l1.667-1.727L487.219,443.628"/>
</g>
</svg>
