<?xml version="1.0" encoding="utf-8"?>
<!-- Generator: Adobe Illustrator 16.0.0, SVG Export Plug-In . SVG Version: 6.00 Build 0)  -->
<!DOCTYPE svg PUBLIC "-//W3C//DTD SVG 1.1//EN" "http://www.w3.org/Graphics/SVG/1.1/DTD/svg11.dtd">
<svg version="1.1"
	 id="svg8697" xmlns:dc="http://purl.org/dc/elements/1.1/" xmlns:cc="http://creativecommons.org/ns#" xmlns:rdf="http://www.w3.org/1999/02/22-rdf-syntax-ns#" xmlns:svg="http://www.w3.org/2000/svg" xmlns:sodipodi="http://sodipodi.sourceforge.net/DTD/sodipodi-0.dtd" xmlns:inkscape="http://www.inkscape.org/namespaces/inkscape" inkscape:output_extension="org.inkscape.output.svg.inkscape" sodipodi:docname="Ohio Republican Presidential Primary Election Results by County, 2012.svg" inkscape:version="0.48.2 r9819" sodipodi:version="0.32"
	 xmlns="http://www.w3.org/2000/svg" xmlns:xlink="http://www.w3.org/1999/xlink" x="0px" y="0px" width="230.074px"
	 height="260.094px" viewBox="0 0 230.074 260.094" enable-background="new 0 0 230.074 260.094" xml:space="preserve">
<defs>
	
	
		<inkscape:perspective  id="perspective8705" inkscape:vp_z="744.09448 : 526.18109 : 1" inkscape:vp_y="0 : 1000 : 0" inkscape:vp_x="0 : 526.18109 : 1" sodipodi:type="inkscape:persp3d" inkscape:persp3d-origin="372.04724 : 350.78739 : 1">
		</inkscape:perspective>
</defs>
<sodipodi:namedview  showgrid="false" inkscape:cy="122.22317" inkscape:cx="102.54317" inkscape:zoom="1.2588673" objecttolerance="10" guidetolerance="10" gridtolerance="10000" borderopacity="1.0" bordercolor="#666666" pagecolor="#ffffff" id="base" inkscape:window-maximized="0" inkscape:window-y="-4" inkscape:window-x="-4" inkscape:window-height="721" inkscape:window-width="1024" inkscape:current-layer="layer1" inkscape:document-units="px" inkscape:pageshadow="2" inkscape:pageopacity="0.0">
	</sodipodi:namedview>
<g id="layer1" transform="translate(-230.75773,-368.29228)" inkscape:label="Layer 1" inkscape:groupmode="layer">
	<path id="OH_Trumbull" inkscape:label="Trumbull, OH" fill="#999999" stroke="#FFFFFF" stroke-width="0.928" d="M446.831,409.168
		l0.071,0.711l2.175,23.129l-23.283,2.083l-1.296-13.919l-0.985-9.998L446.831,409.168"/>
	<path id="OH_Ashtabula" inkscape:label="Ashtabula, OH" fill="#999999" stroke="#FFFFFF" stroke-width="0.928" d="M444.72,386.428
		l2.111,22.74l-23.318,2.006l-1.237-13.885l-0.771-9.096l22.444-10.069L444.72,386.428"/>
	<path id="OH_Lawrence" inkscape:label="Lawrence, OH" fill="#999999" stroke="#FFFFFF" stroke-width="0.928" d="M356.405,590.424
		l3.749,0.035l-0.059,4.298l5.969,2.052l5.955,4.849l0.066,4.957l3.78-0.118l-0.218,2.828l-0.029,0.135l-0.551,4.621l-0.123,0.466
		l-0.12,0.425l-0.167,0.372l-0.29,0.322l-0.52,0.286l-8.211,2.604l-4.427-0.446l-4.022-5.214l-7.85-3.705l3.208-1.753l3.686-10.368
		l0.113-0.96L356.405,590.424"/>
	<path id="OH_Scioto" inkscape:label="Scioto, OH" fill="#999999" stroke="#FFFFFF" stroke-width="0.928" d="M324.628,581.636
		l3.015,3.332l0.174,0.118l10.596-0.439l9.671-0.125l2.709-0.012l-0.002,3.272l0.98,2.641l4.635,0.001l-0.06,5.685l-0.113,0.96
		l-3.686,10.368l-3.208,1.753l-0.218-0.132l-1.034-0.798l-0.045-0.074l-0.373-0.505l-0.286-0.741l-0.098-0.259l-1.109-4.329
		l-0.334-2.071l0.104-0.779l-0.022-0.031l0.004-0.065l-0.008-0.46l-0.068-0.393l-0.014-0.092l-0.019-0.093l-0.075-0.161l-0.121-0.21
		l-0.058-0.12l-0.213-0.268l-0.501-0.262l-0.256-0.018l-0.062,0.011l-1.407,0.502l-4.317,1.604l-0.927,0.344l-0.002,0.025
		l-12.1,8.812L324.628,581.636"/>
	<path id="OH_Adams" inkscape:label="Adams, OH" fill="#999999" stroke="#FFFFFF" stroke-width="0.928" d="M324.628,581.636
		l1.153,26.99l-2.715-2.349l-0.118-0.049l-1.636-0.911l-0.131-0.074l-5.299-1.672l-1.993-0.639l-0.07-0.005l-0.423-0.075
		l-0.627,0.093l-4.055,1.445l-0.548,0.325l-0.431,0.605l-0.431,2.265l-2.914,0.139l0.119-25.131l14.219-3.141L324.628,581.636"/>
	<path id="OH_Pike" inkscape:label="Pike, OH" fill="#999999" stroke="#FFFFFF" stroke-width="0.928" d="M319.756,570.038
		l28.392,0.015l-0.064,14.469l-9.671,0.125l-10.596,0.439l-0.174-0.118l-3.015-3.332l-5.898-2.183L319.756,570.038"/>
	<path id="OH_Jackson" inkscape:label="Jackson, OH" fill="#999999" stroke="#FFFFFF" stroke-width="0.928" d="M349.123,567.418
		l5.64-0.015l5.75,0.987l5.789,2.387l-0.043,6.75l-6.104,12.932l-3.749-0.035l-4.635-0.001l-0.98-2.641l0.002-3.272l-2.709,0.012
		l0.064-14.469L349.123,567.418"/>
	<path id="OH_Gallia" inkscape:label="Gallia, OH" fill="#999999" stroke="#FFFFFF" stroke-width="0.928" d="M371.912,577.6
		l0.008,0.959l11.462-0.197l0.046,2.954l-1.568,6.118l-1.384,10.408l0.014,0.021l0.927,5.365l0.038,0.457l-0.006,0.09l-0.041,0.225
		l-0.052,0.379l-0.088,0.312l-0.229,0.322l-0.136,0.127l-0.297,0.206l-0.118,0.112l-0.301,0.04l-0.963,0.139l-3.358,0.86
		l-3.78,0.118l-0.066-4.957l-5.955-4.849l-5.969-2.052l0.059-4.298l6.104-12.932L371.912,577.6"/>
	<path id="OH_Meigs" inkscape:label="Meigs, OH" fill="#999999" stroke="#FFFFFF" stroke-width="0.928" d="M373.758,565.913
		l25.962-0.434l0.544,5.49l-3.165,1.12l-0.039,0.562l0.184,0.9l0.493,0.746l0.533,0.45l1.081,0.838l0.498,0.67l0.84,5.293
		l-0.158,0.534l-5.506,3.366l-1.682,0.316l0.237-3.393l-0.146-0.515l-1.109-1.943l-0.894-1.282l-3.523-2.254l-0.025-0.002
		l-0.765-0.094l-0.891,0.392l-2.581,3.748l-0.219,0.893l-0.046-2.954l-11.462,0.197l-0.008-0.959L373.758,565.913"/>
	<path id="OH_Vinton" inkscape:label="Vinton, OH" fill="#999999" stroke="#FFFFFF" stroke-width="0.928" d="M349.107,556.917
		l5.642,0.026l5.834-0.929l0.03-1.728l11.229-0.052l-0.021,5.858l1.908-0.027l0.029,5.847l-1.846,11.687l-5.653-0.072l0.043-6.75
		l-5.789-2.387l-5.75-0.987l-5.64,0.015L349.107,556.917"/>
	<path id="OH_Washington" inkscape:label="Washington, OH" fill="#999999" stroke="#FFFFFF" stroke-width="0.928" d="
		M420.566,535.797l1.937,1.593l10.44-0.454l0.082,2.073l-4.838,6.505l-10.538,7.831l-1.994-2.843l-0.335-0.411l-1.22-0.792
		l-0.564-0.085l-0.462,0.109l-0.548,0.41l-3.415,3.624l-7.045,7.783l-1.332,2.458l-0.098-4.081l-4.811,0.208l-1.979-2.842
		l-0.269-8.632l11.997-9.958L420.566,535.797"/>
	<path id="OH_Athens" inkscape:label="Athens, OH" fill="#999999" stroke="#FFFFFF" stroke-width="0.928" d="M377.457,542.51
		l5.575-0.038l10.545,5.78l0.269,8.632l1.979,2.842l4.811-0.208l0.098,4.081l-1.014,1.881l-25.962,0.434l-0.029-5.847l-1.908,0.027
		l0.043-11.656l5.64-0.014L377.457,542.51"/>
	<path id="OH_Hocking" inkscape:label="Hocking, OH" fill="#999999" stroke="#FFFFFF" stroke-width="0.928" d="M366.307,536.889
		l11.15,5.621l0.046,5.914l-5.64,0.014l-0.022,5.798l-11.229,0.052l-0.03,1.728l-5.834,0.929l-5.642-0.026l-0.062-6.555l0.053-5.655
		l0.908-0.935l4.507-3.003l6.048-3.919L366.307,536.889"/>
	<path id="OH_Ross" inkscape:label="Ross, OH" fill="#999999" stroke="#FFFFFF" stroke-width="0.928" d="M322.728,548.975
		l12.849-0.211l1.053,0.957l0.585,0.727l11.831-0.085l0.062,6.555l0.017,10.501l-0.976,2.635l-28.392-0.015l-1.711-11.657
		L322.728,548.975"/>
	<path id="OH_Highland" inkscape:label="Highland, OH" fill="#999999" stroke="#FFFFFF" stroke-width="0.928" d="M307.193,558.963
		l10.853-0.582l1.711,11.657l-1.026,9.415l-14.219,3.141l-9.947,0.529l-0.53-14.768L307.193,558.963"/>
	<path id="OH_Brown" inkscape:label="Brown, OH" fill="#999999" stroke="#FFFFFF" stroke-width="0.928" d="M287.65,568.277
		l6.384,0.078l0.53,14.768l9.947-0.529l-0.119,25.131l-3.778-2.216l-4.092-4.875l-0.299-0.278l-0.596-0.269l-1.701-0.346
		l-7.478,0.273L287.65,568.277"/>
	<path id="OH_Clermont" inkscape:label="Clermont, OH" fill="#999999" stroke="#FFFFFF" stroke-width="0.928" d="M286.967,568.229
		l0.683,0.048l-1.201,31.737l-9.109-3.295l-0.27-2.999l-4.865-9.388l0.498-10.011l-0.646-2.229l2.272-4.158L286.967,568.229"/>
	<path id="OH_Hamilton" inkscape:label="Hamilton, OH" fill="#999999" stroke="#FFFFFF" stroke-width="0.928" d="M269.589,566.787
		l4.74,1.148l-2.272,4.158l0.646,2.229l-0.498,10.011l-9.563-4.305l-5.8,1.667l-9.937-1.558l-0.585-13.047l8.231-0.377l3.689-0.408
		l9.444,0.232L269.589,566.787"/>
	<path id="OH_Clinton" inkscape:label="Clinton, OH" fill="#999999" stroke="#FFFFFF" stroke-width="0.928" d="M302.593,548
		l4.6,10.963l-13.159,9.393l-6.384-0.078l-0.683-0.048l0.329-20.563L302.593,548"/>
	<path id="OH_Warren" inkscape:label="Warren, OH" fill="#999999" stroke="#FFFFFF" stroke-width="0.928" d="M280.467,547.451
		l6.829,0.216l-0.329,20.563l-12.638-0.294l-4.74-1.148l-1.618-19.408L280.467,547.451"/>
	<path id="OH_Butler" inkscape:label="Butler, OH" fill="#999999" stroke="#FFFFFF" stroke-width="0.928" d="M262.335,547.636
		l5.636-0.257l1.618,19.408l-1.904-0.249l-9.444-0.232l-3.689,0.408l-8.231,0.377l-0.462-14.173l-0.136-2.96L262.335,547.636"/>
	<path id="OH_Preble" inkscape:label="Preble, OH" fill="#999999" stroke="#FFFFFF" stroke-width="0.928" d="M260.883,526.222
		l1.452,21.414l-16.613,2.322l-0.457-10.4l-0.512-12.441L260.883,526.222"/>
	<path id="OH_Montgomery" inkscape:label="Montgomery, OH" fill="#999999" stroke="#FFFFFF" stroke-width="0.928" d="
		M263.834,525.99l13.268-0.934l-0.462,0.765l0.22,1.039l0.323,0.638l5.283,0.098l-0.012,1.905l-1.987,17.95l-12.496-0.072
		l-5.636,0.257l-1.452-21.414L263.834,525.99"/>
	<path id="OH_Greene" inkscape:label="Greene, OH" fill="#999999" stroke="#FFFFFF" stroke-width="0.928" d="M302.839,533.383
		l-0.072,3.696L302.593,548l-15.297-0.333l-6.829-0.216l1.987-17.95l3.509,0.084l2.123,0.214l5.673,0.881l-0.028,1.632
		L302.839,533.383"/>
	<path id="OH_Fayette" inkscape:label="Fayette, OH" fill="#999999" stroke="#FFFFFF" stroke-width="0.928" d="M302.767,537.079
		l19.918,0.168l0.043,11.728l-4.683,9.406l-10.853,0.582l-4.6-10.963L302.767,537.079"/>
	<path id="OH_Pickaway" inkscape:label="Pickaway, OH" fill="#999999" stroke="#FFFFFF" stroke-width="0.928" d="M322.636,529.513
		l20.784-0.176l-0.02,6.494l0.135,8.81l5.563,0.066l-0.053,5.655l-11.831,0.085l-0.585-0.727l-1.053-0.957l-12.849,0.211
		l-0.043-11.728L322.636,529.513"/>
	<path id="OH_Fairfield" inkscape:label="Fairfield, OH" fill="#999999" stroke="#FFFFFF" stroke-width="0.928" d="M344.843,519.749
		l15.79-0.509l-0.024,6.11l2.57,0.023l3.142,5.767l-0.014,5.748l-5.746-0.038l-6.048,3.919l-4.507,3.003l-0.908,0.935l-5.563-0.066
		l-0.135-8.81l0.02-6.494L344.843,519.749"/>
	<path id="OH_Perry" inkscape:label="Perry, OH" fill="#999999" stroke="#FFFFFF" stroke-width="0.928" d="M360.633,519.24
		l11.368,0.271l8.483,8.707l2.548,14.254l-5.575,0.038l-11.15-5.621l0.014-5.748l-3.142-5.767l-2.57-0.023L360.633,519.24"/>
	<path id="OH_Monroe" inkscape:label="Monroe, OH" fill="#999999" stroke="#FFFFFF" stroke-width="0.928" d="M421.364,518.535
		l5.451-0.279l11.563-0.215l3.602-0.156l0.454-0.286l-0.067,8.745l-5.032,7.918l-4.311,4.747l-0.082-2.073l-10.44,0.454
		l-1.937-1.593l-0.466-6.599l-1.871,0.137l-0.631-10.584L421.364,518.535"/>
	<path id="OH_Noble" inkscape:label="Noble, OH" fill="#999999" stroke="#FFFFFF" stroke-width="0.928" d="M421.07,513.083
		l0.294,5.452l-3.767,0.216l0.631,10.584l1.871-0.137l0.466,6.599l-14.991,2.497l-6.312-10.553l-0.279-5.678l5.63-0.241
		l-0.127-2.077l1.695-1.817l7.402-4.168l1.865-0.349L421.07,513.083"/>
	<path id="OH_Morgan" inkscape:label="Morgan, OH" fill="#999999" stroke="#FFFFFF" stroke-width="0.928" d="M380.485,528.218
		l18.778-0.477l6.312,10.553l-11.997,9.958l-10.545-5.78L380.485,528.218"/>
	<path id="OH_Muskingum" inkscape:label="Muskingum, OH" fill="#999999" stroke="#FFFFFF" stroke-width="0.928" d="M373.053,502.816
		l23.223-0.857l0.539,14.421l1.842-0.094l0.327,5.777l0.279,5.678l-18.778,0.477l-8.483-8.707L373.053,502.816"/>
	<path id="OH_Belmont" inkscape:label="Belmont, OH" fill="#999999" stroke="#FFFFFF" stroke-width="0.928" d="M437.144,497.999
		l8.841-0.657l-0.707,8.227l-2.843,12.03l-0.454,0.286l-3.602,0.156l-11.563,0.215l-5.451,0.279l-0.294-5.452l-0.826-14.289
		L437.144,497.999"/>
	<path id="OH_Harrison" inkscape:label="Harrison, OH" fill="#999999" stroke="#FFFFFF" stroke-width="0.928" d="M432.719,481.003
		l3.742-0.213l0.165,2.831l-0.185,0.396l0.702,13.982l-16.899,0.795l-5.763-2.399l-0.314-5.893l1.829-0.124l1.044-0.644
		l-0.425-7.922L432.719,481.003"/>
	<path id="OH_Guernsey" inkscape:label="Guernsey, OH" fill="#999999" stroke="#FFFFFF" stroke-width="0.928" d="M400.503,497.096
		l13.979-0.701l5.763,2.399l0.826,14.289l-5.621,0.328l-1.865,0.349l-7.402,4.168l-1.695,1.817l0.127,2.077l-5.63,0.241
		l-0.327-5.777l-1.842,0.094l-0.539-14.421l1.775-0.088l0.426-0.237l-0.151-3.964L400.503,497.096"/>
	<path id="OH_Coshocton" inkscape:label="Coshocton, OH" fill="#999999" stroke="#FFFFFF" stroke-width="0.928" d="M371.765,483.945
		l23.323-1.071l0.231,4.837l4.716-0.215l0.468,9.6l-2.178,0.574l0.151,3.964l-0.426,0.237l-1.775,0.088l-23.223,0.857l-0.788-4.675
		L371.765,483.945"/>
	<path id="OH_Licking" inkscape:label="Licking, OH" fill="#999999" stroke="#FFFFFF" stroke-width="0.928" d="M344.775,497.651
		l13.627-0.162l0.025,1.232l5.578-0.089l8.26-0.491l0.788,4.675l-1.052,16.694l-11.368-0.271l-15.79,0.509l0.148-12.219
		L344.775,497.651"/>
	<path id="OH_Delaware" inkscape:label="Delaware, OH" fill="#999999" stroke="#FFFFFF" stroke-width="0.928" d="M319.737,488.4
		l11.19-0.079l13.901,4.583l-0.055,4.747l0.217,9.879l-20.133,0.23l-0.54-6.558l-3.694,0.19l-0.661-8.499L319.737,488.4"/>
	<path id="OH_Franklin" inkscape:label="Franklin, OH" fill="#999999" stroke="#FFFFFF" stroke-width="0.928" d="M344.991,507.53
		l-0.148,12.219l-1.423,9.588l-20.784,0.176l0.601-19.323l1.622-2.429L344.991,507.53"/>
	<path id="OH_Madison" inkscape:label="Madison, OH" fill="#999999" stroke="#FFFFFF" stroke-width="0.928" d="M308.577,510.898
		l14.659-0.709l-0.601,19.323l0.049,7.734l-19.918-0.168l0.072-3.696l5.593-15.934L308.577,510.898"/>
	<path id="OH_Clark" inkscape:label="Clark, OH" fill="#999999" stroke="#FFFFFF" stroke-width="0.928" d="M282.612,517.076
		l25.819,0.373l-5.593,15.934l-9.108-1.071l0.028-1.632l-5.673-0.881l-2.123-0.214l-3.509-0.084l0.012-1.905L282.612,517.076"/>
	<path id="OH_Champaign" inkscape:label="Champaign, OH" fill="#999999" stroke="#FFFFFF" stroke-width="0.928" d="M305.763,503.334
		l2.814,7.564l-0.146,6.551l-25.819-0.373l0.227-15.28l11.378,0.201l2.861,1.048L305.763,503.334"/>
	<path id="OH_Miami" inkscape:label="Miami, OH" fill="#999999" stroke="#FFFFFF" stroke-width="0.928" d="M262.554,507.882
		l20.197-0.222l-0.139,9.416l-0.146,10.52l-5.283-0.098l-0.323-0.638l-0.22-1.039l0.462-0.765l-13.268,0.934L262.554,507.882"/>
	<path id="OH_Shelby" inkscape:label="Shelby, OH" fill="#999999" stroke="#FFFFFF" stroke-width="0.928" d="M261.951,497.607
		l0.65-1.589l3.587-6.936l1.088-0.055l15.388-0.966l0.175,13.733l-0.088,5.864l-20.197,0.222l-0.63-10.251L261.951,497.607"/>
	<path id="OH_Darke" inkscape:label="Darke, OH" fill="#999999" stroke="#FFFFFF" stroke-width="0.928" d="M261.924,497.631
		l0.63,10.251l1.28,18.108l-2.951,0.231l-16.13,0.895l-0.187-5.768l-0.613-19.932l-0.144-2.774L261.924,497.631"/>
	<path id="OH_Mercer" inkscape:label="Mercer, OH" fill="#999999" stroke="#FFFFFF" stroke-width="0.928" d="M259.768,476.112
		l2.184,21.495l-0.027,0.023l-18.114,1.012l-0.605-14.344l-0.479-10.17L259.768,476.112"/>
	<path id="OH_Auglaize" inkscape:label="Auglaize, OH" fill="#999999" stroke="#FFFFFF" stroke-width="0.928" d="M262.654,475.956
		l8.488-0.525l0.109,1.898l9.374,0.313l7.42-0.459l0.394,6.921l-5.774,3.959l-15.388,0.966l-1.088,0.055l-3.587,6.936l-0.65,1.589
		l-2.184-21.495L262.654,475.956"/>
	<path id="OH_Logan" inkscape:label="Logan, OH" fill="#999999" stroke="#FFFFFF" stroke-width="0.928" d="M288.439,484.104
		l2.029,0.475l15.646,0.389l0.086,0.349l-0.438,18.019l-8.685-0.289l-2.861-1.048l-11.378-0.201l-0.175-13.733L288.439,484.104"/>
	<path id="OH_Union" inkscape:label="Union, OH" fill="#999999" stroke="#FFFFFF" stroke-width="0.928" d="M306.2,485.315
		l4.961-0.404l8.576,3.489l0.226,4.494l0.661,8.499l3.694-0.19l0.54,6.558l-1.622,2.429l-14.659,0.709l-2.814-7.564L306.2,485.315"
		/>
	<path id="OH_Marion" inkscape:label="Marion, OH" fill="#999999" stroke="#FFFFFF" stroke-width="0.928" d="M337.674,470.108
		l0.192,3.811l-4.779,0.413l-2.179,10.664l0.02,3.325l-11.19,0.079l-8.576-3.489l-0.802-11.826l14.973-2.02L337.674,470.108"/>
	<path id="OH_Morrow" inkscape:label="Morrow, OH" fill="#999999" stroke="#FFFFFF" stroke-width="0.928" d="M337.674,470.108
		l6.358-0.852l5.815,10.155l-0.347,3.299l0.152,10.143l-4.824,0.051l-13.901-4.583l-0.02-3.325l2.179-10.664l4.779-0.413
		L337.674,470.108"/>
	<path id="OH_Knox" inkscape:label="Knox, OH" fill="#999999" stroke="#FFFFFF" stroke-width="0.928" d="M369.462,476.785
		l2.303,7.16l0.5,14.196l-8.26,0.491l-5.578,0.089l-0.025-1.232l-13.627,0.162l0.055-4.747l4.824-0.051l-0.152-10.143l0.347-3.299
		l13.981-1.337L369.462,476.785"/>
	<path id="OH_Holmes" inkscape:label="Holmes, OH" fill="#999999" stroke="#FFFFFF" stroke-width="0.928" d="M396.804,468.082
		l0.166,2.175l-0.585,0.504l0.616,12.021l-1.913,0.093l-23.323,1.071l-2.303-7.16l4.097-6.875L396.804,468.082"/>
	<path id="OH_Tuscarawas" inkscape:label="Tuscarawas, OH" fill="#999999" stroke="#FFFFFF" stroke-width="0.928" d="
		M413.07,467.817l0.274,5.531l2.802-0.116l0.894,16.502l-1.044,0.644l-1.829,0.124l0.314,5.893l-13.979,0.701l-0.468-9.6
		l-4.716,0.215l-0.231-4.837l1.913-0.093l-0.616-12.021l0.585-0.504L413.07,467.817"/>
	<path id="OH_Carroll" inkscape:label="Carroll, OH" fill="#999999" stroke="#FFFFFF" stroke-width="0.928" d="M423.879,461.887
		l11.708,7.385l-2.868,11.731l-16.104,0.81l-0.469-8.58l-2.802,0.116l-0.274-5.531l3.744-0.242l-0.184-4.148l1.805-1.149
		L423.879,461.887"/>
	<path id="OH_Jefferson" inkscape:label="Jefferson, OH" fill="#999999" stroke="#FFFFFF" stroke-width="0.928" d="M435.587,469.271
		l9.575,0.236l3.587,12.031l-2.101,13.807l-0.664,1.996l-8.841,0.657l-0.702-13.982l0.185-0.396l-0.165-2.831l-3.742,0.213
		L435.587,469.271"/>
	<path id="OH_Columbiana" inkscape:label="Columbiana, OH" fill="#999999" stroke="#FFFFFF" stroke-width="0.928" d="
		M450.445,448.197l0.354,3.151l1.282,13.827l-6.92,4.332l-9.575-0.236l-11.708-7.385l-0.977-11.415L450.445,448.197"/>
	<path id="OH_Stark" inkscape:label="Stark, OH" fill="#999999" stroke="#FFFFFF" stroke-width="0.928" d="M407.528,446.199
		l14.899-1.253l1.452,16.94l-5.443,0.391l-1.805,1.149l0.184,4.148l-3.744,0.242l-16.101,2.439l-1.384-18.217L407.528,446.199"/>
	<path id="OH_Wayne" inkscape:label="Wayne, OH" fill="#999999" stroke="#FFFFFF" stroke-width="0.928" d="M393.226,447.356
		l2.36,4.684l1.218,16.042l-23.245,1.828l-1.782-21.104L393.226,447.356"/>
	<path id="OH_Ashland" inkscape:label="Ashland, OH" fill="#999999" stroke="#FFFFFF" stroke-width="0.928" d="M369.388,444.323
		l2.389,4.483l1.782,21.104l-4.097,6.875l-5.633,1.29l-0.945-11.206l-2.804-5.123l-1.659-4.554l-0.638-7.383l-0.729,0.035
		l4.329-5.083L369.388,444.323"/>
	<path id="OH_Richland" inkscape:label="Richland, OH" fill="#999999" stroke="#FFFFFF" stroke-width="0.928" d="M342.86,450.697
		l14.195-0.853l0.729-0.035l0.638,7.383l1.659,4.554l2.804,5.123l0.945,11.206l-13.981,1.337l-5.815-10.155L342.86,450.697"/>
	<path id="OH_Crawford" inkscape:label="Crawford, OH" fill="#999999" stroke="#FFFFFF" stroke-width="0.928" d="M342.86,450.697
		l1.173,18.56l-6.358,0.852l-12.342,0.957l-1.303-18.937l13.737-1.152L342.86,450.697"/>
	<path id="OH_Wyandot" inkscape:label="Wyandot, OH" fill="#999999" stroke="#FFFFFF" stroke-width="0.928" d="M309.089,453.177
		l14.94-1.048l1.303,18.937l-14.973,2.02l-1.01,0.02l-2.763-0.737l-0.491-7.609l-0.968,0.054L309.089,453.177"/>
	<path id="OH_Hardin" inkscape:label="Hardin, OH" fill="#999999" stroke="#FFFFFF" stroke-width="0.928" d="M287.382,465.754
		l17.746-0.942l0.968-0.054l0.491,7.609l2.763,0.737l1.01-0.02l0.802,11.826l-4.961,0.404l-0.086-0.349l-15.646-0.389l-2.029-0.475
		L287.382,465.754"/>
	<path id="OH_Allen" inkscape:label="Allen, OH" fill="#999999" stroke="#FFFFFF" stroke-width="0.928" d="M286.983,459.2
		l0.399,6.554l0.663,11.429l-7.42,0.459l-9.374-0.313l-0.109-1.898l-8.488,0.525l2.142-11.515l5.664-0.375l5.522-1.294l-0.118-1.919
		l5.552-1.291L286.983,459.2"/>
	<path id="OH_Hancock" inkscape:label="Hancock, OH" fill="#999999" stroke="#FFFFFF" stroke-width="0.928" d="M286.024,443.062
		l22.313-1.259l0.753,11.374l-3.961,11.635l-17.746,0.942l-0.399-6.554L286.024,443.062"/>
	<path id="OH_Putnam" inkscape:label="Putnam, OH" fill="#999999" stroke="#FFFFFF" stroke-width="0.928" d="M286.024,443.062
		l0.959,16.139l-5.567,0.362l-5.552,1.291l0.118,1.919l-5.522,1.294l-5.664,0.375l-3.3-8.416l2.227-11.569l5.475-0.328
		L286.024,443.062"/>
	<path id="OH_Van_Wert" inkscape:label="Van Wert, OH" fill="#999999" stroke="#FFFFFF" stroke-width="0.928" d="M241.855,457.088
		l19.641-1.063l3.3,8.416l-2.142,11.515l-2.886,0.156l-17.043-1.983l-0.646-12.684L241.855,457.088"/>
	<path id="OH_Mahoning" inkscape:label="Mahoning, OH" fill="#999999" stroke="#FFFFFF" stroke-width="0.928" d="M449.126,433.535
		l1.319,14.662l-27.543,2.274l-0.476-5.525l3.367-9.855l23.283-2.083L449.126,433.535"/>
	<path id="OH_Portage" inkscape:label="Portage, OH" fill="#999999" stroke="#FFFFFF" stroke-width="0.928" d="M405.679,422.745
		l18.819-1.573l1.296,13.919l-3.367,9.855l-14.899,1.253l-1.869-23.455L405.679,422.745"/>
	<path id="OH_Summit" inkscape:label="Summit, OH" fill="#999999" stroke="#FFFFFF" stroke-width="0.928" d="M405.658,422.744
		l1.869,23.455l-11.941,5.841l-2.36-4.684l-1.362-18.805l5.784-0.503l-1.285-2.753l-0.69-1.884L405.658,422.744"/>
	<path id="OH_Medina" inkscape:label="Medina, OH" fill="#999999" stroke="#FFFFFF" stroke-width="0.928" d="M391.863,428.552
		l1.362,18.805l-21.449,1.45l-2.389-4.483l-0.275-4.79l8.914-8.767l4.52-1.318L391.863,428.552"/>
	<path id="OH_Huron" inkscape:label="Huron, OH" fill="#999999" stroke="#FFFFFF" stroke-width="0.928" d="M335.872,431.908
		l24.157-1.312l1.354,14.165l-4.329,5.083l-14.195,0.853l-5.093,0.279L335.872,431.908"/>
	<path id="OH_Seneca" inkscape:label="Seneca, OH" fill="#999999" stroke="#FFFFFF" stroke-width="0.928" d="M336.097,434.178
		l1.67,16.799l-13.737,1.152l-14.94,1.048l-0.753-11.374l-0.307-5.7L336.097,434.178"/>
	<path id="OH_Sandusky" inkscape:label="Sandusky, OH" fill="#999999" stroke="#FFFFFF" stroke-width="0.928" d="M307.293,420.024
		l3.636-0.295l0.229,2.86l13.064-0.837l5.501-0.432l0.144,1.851l5.09-0.38l1.14,11.386l-28.067,1.925L307.293,420.024"/>
	<path id="OH_Wood" inkscape:label="Wood, OH" fill="#999999" stroke="#FFFFFF" stroke-width="0.928" d="M306.764,412.297
		l0.529,7.728l0.736,16.078l0.307,5.7l-22.313,1.259l-1.039-16.074l1.413-0.083l4.967-3.677l1.48-2.348l6.466-8.01L306.764,412.297"
		/>
	<path id="OH_Henry" inkscape:label="Henry, OH" fill="#999999" stroke="#FFFFFF" stroke-width="0.928" d="M284.728,422.219
		l0.257,4.769l1.039,16.074l-16.827,1.066l-0.948-17.086l-5.478,0.298l-0.211-3.757L284.728,422.219"/>
	<path id="OH_Paulding" inkscape:label="Paulding, OH" fill="#999999" stroke="#FFFFFF" stroke-width="0.928" d="M263.722,444.456
		l-2.227,11.569l-19.641,1.063l-0.845-17.2l16.765-0.896l5.778,2.613L263.722,444.456"/>
	<path id="OH_Defiance" inkscape:label="Defiance, OH" fill="#999999" stroke="#FFFFFF" stroke-width="0.928" d="M262.771,427.34
		l5.478-0.298l0.948,17.086l-5.475,0.328l-0.169-2.851l-5.778-2.613l-16.765,0.896l-0.057-1.204l-0.519-10.107L262.771,427.34"/>
	<path id="OH_Geauga" inkscape:label="Geauga, OH" fill="#999999" stroke="#FFFFFF" stroke-width="0.928" d="M404.478,408.339
		l4.576-0.4l-0.357-4.624l8.325-0.709l0.558-4.439l4.696-0.877l1.237,13.885l0.985,9.998l-18.819,1.573L404.478,408.339"/>
	<path id="OH_Lake" inkscape:label="Lake, OH" fill="#999999" stroke="#FFFFFF" stroke-width="0.928" d="M421.505,388.193
		l0.771,9.096l-4.696,0.877l-0.558,4.439l-8.325,0.709l0.357,4.624l-4.576,0.4l-5.039-3.595l2-2.932l2.394-2.425l1.582-1.482
		l3.006-2.382l10.837-6.126L421.505,388.193"/>
	<path id="OH_Cuyahoga" inkscape:label="Cuyahoga, OH" fill="#999999" stroke="#FFFFFF" stroke-width="0.928" d="M399.439,404.744
		l5.039,3.595l1.201,14.406l-0.021-0.001l-9.986,0.668l0.69,1.884l1.285,2.753l-5.784,0.503l-9.317,0.896l-0.335-4.94l-4.566,0.321
		l-0.654-10.111l0.311,0.319l0.222,0.151l1.017,0.389l2.96,0.293l6.367-0.76l0.285-0.111l1.271-0.955l3.536-2.829l1.508-1.433
		l4.454-4.494L399.439,404.744"/>
	<path id="OH_Lorain" inkscape:label="Lorain, OH" fill="#999999" stroke="#FFFFFF" stroke-width="0.928" d="M376.99,414.718
		l0.654,10.111l4.566-0.321l0.335,4.94l-4.52,1.318l-8.914,8.767l0.275,4.79l-8.004,0.438l-1.354-14.165l-0.955-9.411
		L376.99,414.718"/>
	<path id="OH_Erie" inkscape:label="Erie, OH" fill="#999999" stroke="#FFFFFF" stroke-width="0.928" d="M342.061,418.135
		l4.043,3.989l2.976,1.655l2.214,0.866l0.716,0.141l0.866-0.051l0.961-0.406l1.377-0.792l3.861-2.352l0.955,9.411l-24.157,1.312
		l-0.915-9.116l-5.09,0.38l-0.144-1.851L342.061,418.135"/>
	<path id="OH_Ottawa" inkscape:label="Ottawa, OH" fill="#999999" stroke="#FFFFFF" stroke-width="0.928" d="M318.568,411.176
		l5.099,1.587l10.32,1.332l1.647-0.545l5.113,3.61l1.313,0.975l-12.337,3.187l-5.501,0.432l-13.064,0.837l-0.229-2.86l-3.636,0.295
		l-0.529-7.728L318.568,411.176"/>
	<path id="OH_Lucas" inkscape:label="Lucas, OH" fill="#999999" stroke="#FFFFFF" stroke-width="0.928" d="M289.602,406.467
		l14.849-1.463l14.117,6.172l-11.804,1.121l-7.453,0.573l-6.466,8.01l-1.48,2.348l-4.967,3.677l-1.413,0.083l-0.257-4.769
		l-0.759-15.167L289.602,406.467"/>
	<path id="OH_Fulton" inkscape:label="Fulton, OH" fill="#999999" stroke="#FFFFFF" stroke-width="0.928" d="M260.904,409.19
		l23.065-2.139l0.759,15.167l-22.168,1.364l-3.503-14.229L260.904,409.19"/>
	<path id="OH_Williams" inkscape:label="Williams, OH" fill="#999999" stroke="#FFFFFF" stroke-width="0.928" d="M239.508,410.962
		l19.549-1.608l3.503,14.229l0.211,3.757l-22.336,1.236l-0.342-6.797L239.508,410.962"/>
</g>
</svg>
