<?xml version="1.0" encoding="utf-8"?>
<!-- Generator: Adobe Illustrator 16.0.0, SVG Export Plug-In . SVG Version: 6.00 Build 0)  -->
<!DOCTYPE svg PUBLIC "-//W3C//DTD SVG 1.1//EN" "http://www.w3.org/Graphics/SVG/1.1/DTD/svg11.dtd">
<svg version="1.1"
	 id="svg7565" xmlns:dc="http://purl.org/dc/elements/1.1/" xmlns:cc="http://creativecommons.org/ns#" xmlns:rdf="http://www.w3.org/1999/02/22-rdf-syntax-ns#" xmlns:svg="http://www.w3.org/2000/svg" xmlns:sodipodi="http://sodipodi.sourceforge.net/DTD/sodipodi-0.dtd" xmlns:inkscape="http://www.inkscape.org/namespaces/inkscape" inkscape:output_extension="org.inkscape.output.svg.inkscape" sodipodi:docname="Washington Republican Presidential Caucuses Election Results by County, 2012.svg" inkscape:version="0.48.2 r9819" sodipodi:version="0.32"
	 xmlns="http://www.w3.org/2000/svg" xmlns:xlink="http://www.w3.org/1999/xlink" x="0px" y="0px" width="166.086px"
	 height="123.727px" viewBox="0 0 166.086 123.727" enable-background="new 0 0 166.086 123.727" xml:space="preserve">
<defs>
	
	
		<inkscape:perspective  id="perspective7573" inkscape:vp_z="744.09448 : 526.18109 : 1" inkscape:vp_y="0 : 1000 : 0" inkscape:vp_x="0 : 526.18109 : 1" sodipodi:type="inkscape:persp3d" inkscape:persp3d-origin="372.04724 : 350.78739 : 1">
		</inkscape:perspective>
	
		<inkscape:perspective  id="perspective7633" inkscape:vp_z="744.09448 : 526.18109 : 1" inkscape:vp_y="0 : 1000 : 0" inkscape:vp_x="0 : 526.18109 : 1" sodipodi:type="inkscape:persp3d" inkscape:persp3d-origin="372.04724 : 350.78739 : 1">
		</inkscape:perspective>
</defs>
<sodipodi:namedview  showguides="true" showgrid="false" inkscape:cy="72.505269" inkscape:cx="109.79369" inkscape:zoom="2.6087613" objecttolerance="10" guidetolerance="10" gridtolerance="10000" borderopacity="1.0" bordercolor="#666666" pagecolor="#ffffff" id="base" inkscape:window-maximized="0" inkscape:window-y="20" inkscape:window-x="0" inkscape:window-height="721" inkscape:window-width="1024" inkscape:current-layer="layer1" inkscape:document-units="px" inkscape:pageshadow="2" inkscape:pageopacity="0.0" inkscape:guide-bbox="true">
	</sodipodi:namedview>
<g id="layer1" transform="translate(-101.27071,-134.33111)" inkscape:label="Layer 1" inkscape:groupmode="layer">
	<path id="WA_Okanogan" inkscape:label="Okanogan, WA" fill="#999999" stroke="#FFFFFF" stroke-width="0.7892" d="M183.763,150.367
		l22.185,1.923l10.991,0.83l5.713,0.41l-0.156,2.573l-0.561,4.893l-0.61,2.435l-0.348,4.929l0.331,2.283l-0.916,12.646l-0.127,0.166
		l-2.425,0.23l-0.134-0.542l0.412-0.659l0.264-0.572l0.061-0.352l-1.364-2.899l-0.193-0.287l-0.381-0.417l-1.308-0.457l-0.413,0.112
		l-2.049,1.095l-1.881,1.408l-5.289,0.675l-1.519-0.967l0.147-1.48l-1.758-0.389l-1.378,0.619l-0.916,0.487l-0.09,0.077
		l-0.026,0.087l0.006,2.249l0.028,0.098l0.213,0.293l-2.06-0.172l-1.835-0.476l-4.968-6.86l-3.789-5.596l-1.322-4.331l-0.132-0.339
		l-0.733-0.008l-0.656-3.702l0.305-0.146l1.488-1.533l-0.008-0.34l-1.497-5.396l-0.482-1.143L183.763,150.367"/>
	<path id="WA_Whatcom" inkscape:label="Whatcom, WA" fill="#999999" stroke="#FFFFFF" stroke-width="0.7892" d="M183.763,150.367
		l0.82,1.456l0.482,1.143l1.497,5.396l0.008,0.34l-1.488,1.533l-0.305,0.146l-2.068-0.025l-1.055,0.223l-6.613-0.625l-16.783-1.821
		l-6.72-0.689l-0.43,0.032l-0.42-2.092l-2.238-2.328l-2.3-3.419l-0.573-1.418l-0.007-0.102l0.132-0.313l0.449-0.498l0.486-0.404
		l0.354-0.287l6.779,0.74l5.926,0.639l6.681,0.819l12.063,1.058L183.763,150.367 M140.588,145.899l0.125,0.011l0.938,0.106
		l0.188,0.741l-0.14,0.076l-1.065-0.189L140.588,145.899"/>
	<path id="WA_Wahkiakum" inkscape:label="Wahkiakum, WA" fill="#999999" stroke="#FFFFFF" stroke-width="0.7892" d="
		M118.857,222.181l0.37-2.754l4.489,0.608l2.869,0.32l2.815,0.298l-0.613,6.14l-3.115,0.403l-0.16-0.024l-1.065-1.167l0.217-1.357
		l-0.324-0.635l-0.381-0.47l-0.103-0.118l-0.065-0.021l-0.123-0.05l-1.303,0.151L118.857,222.181"/>
	<path id="WA_Asotin" inkscape:label="Asotin, WA" fill="#999999" stroke="#FFFFFF" stroke-width="0.7892" d="M249.881,228.6
		l3.746,1.262l-0.205,1.323l1.065,2.427l0.047,0.096l0.463,1.549l0.547,2.441l-0.502,2.791l0.464,1.961l-11.431-0.672l0.208-3.592
		l1.218,0.067l0.295-5.888l0.124-1.683l0.445-0.406l0.875-0.366l2.565,0.165L249.881,228.6"/>
	<path id="WA_Garfield" inkscape:label="Garfield, WA" fill="#999999" stroke="#FFFFFF" stroke-width="0.7892" d="M237.626,223.192
		l2.132-1.761l0.244-0.136l1.186-0.181l0.533,0.104l3.088,0.684l1.031,0.41l1.116,0.622l2.552,3.242l0.368,1.195l0.005,1.228
		l-0.075,1.476l-2.565-0.165l-0.875,0.366l-0.445,0.406l-0.124,1.683l-0.295,5.888l-1.218-0.067l-0.208,3.592l-2.493-0.168
		l0.196-3.542l0.193-6.303l-2.308-3.995l-2.532-0.141l0.178-2.568L237.626,223.192"/>
	<path id="WA_Columbia" inkscape:label="Columbia, WA" fill="#999999" stroke="#FFFFFF" stroke-width="0.7892" d="M230.009,223.627
		l0.254,0.16l0.806,0.976l0.211,0.078l0.875-0.007l0.17-0.038l4.726-1.125l0.576-0.479l-0.316,1.869l-0.178,2.568l2.532,0.141
		l2.308,3.995l-0.193,6.303l-0.196,3.542l-7.584-0.5l-0.385-0.027l0.147-0.993l0.336-4.998l-2.531-0.151l-2.362-2.688l0.474-7.683
		L230.009,223.627"/>
	<path id="WA_Walla_Walla" inkscape:label="Walla Walla, WA" fill="#999999" stroke="#FFFFFF" stroke-width="0.7892" d="
		M230.009,223.627l-0.332,0.942l-0.474,7.683l2.362,2.688l2.531,0.151l-0.336,4.998l-0.147,0.993l-20.046-1.301l-0.696-5.666
		l0.218-0.408l0.192-0.251l0.838-0.412l0.48-0.145l1.983-0.218l1.335-1.056l2.258-2.038l0.851-1.053l0.457-0.812l0.483-1.753
		l0.105-0.277l0.508-0.584l0.945-0.799l1.614-1.105l0.09-0.025l3.087-0.035l1.396,0.264L230.009,223.627"/>
	<path id="WA_Franklin" inkscape:label="Franklin, WA" fill="#999999" stroke="#FFFFFF" stroke-width="0.7892" d="M207.437,217.89
		l3.601,0.247l8.345,0.678l10.697,0.611l0.184,4.361l-0.254-0.16l-0.297-0.219l-1.396-0.264l-3.087,0.035l-0.09,0.025l-1.614,1.105
		l-0.945,0.799l-0.508,0.584l-0.105,0.277l-0.483,1.753l-0.457,0.812l-0.851,1.053l-2.258,2.038l-1.335,1.056L214.6,232.9
		l-0.48,0.145l-0.838,0.412l-0.192,0.251l-0.218,0.408l-1.466-0.963l-0.492-0.164l-0.591-0.084l-0.657-0.269l-1.147-1.162
		l-0.06-0.157l0.07-0.259l0.603-5.838l-0.156-0.911l-0.822-0.932l-1.068-1.063l-0.627-0.945l-0.786-1.576l-0.031-0.354
		L207.437,217.89"/>
	<path id="WA_Whitman" inkscape:label="Whitman, WA" fill="#999999" stroke="#FFFFFF" stroke-width="0.7892" d="M239.277,204.859
		l15.583,0.896l-0.202,3.811l-0.856,16.936l-0.174,3.361l-3.746-1.262l-0.005-1.228l-0.368-1.195l-2.552-3.242l-1.116-0.622
		l-1.031-0.41l-3.088-0.684l-0.533-0.104l-1.186,0.181l-0.244,0.136l-2.132,1.761l-0.576,0.479l-4.726,1.125l-0.17,0.038
		l-0.875,0.007l-0.211-0.078l-0.806-0.976l-0.184-4.361l3.924-0.624l0.608-0.784l0.444-0.717l0.606-1.26l0.323-1.365l0.579-9.979
		L239.277,204.859"/>
	<path id="WA_Spokane" inkscape:label="Spokane, WA" fill="#999999" stroke="#FFFFFF" stroke-width="0.7892" d="M248.211,182.613
		l7.763,0.46l-0.105,1.965l-0.852,17.628l-0.157,3.089l-15.583-0.896l1.021-16.284l0.34,0.365l0.201,0.079l4.201,0.741l0.825,0.012
		l0.428-7.281L248.211,182.613"/>
	<path id="WA_Pend_Oreille" inkscape:label="Pend Oreille, WA" fill="#999999" stroke="#FFFFFF" stroke-width="0.7892" d="
		M257.556,155.665l-0.245,4.385l-1.337,23.022l-7.763-0.46l0.134-2.519l-1.046-3.325l0.66-11.737l-2.519-0.132l0.137-2.499
		l1.582-2.613l1.188-1.413l1.388-0.928l0.136-2.211L257.556,155.665"/>
	<path id="WA_Stevens" inkscape:label="Stevens, WA" fill="#999999" stroke="#FFFFFF" stroke-width="0.7892" d="M249.872,155.236
		l-0.136,2.211l-1.388,0.928l-1.188,1.413l-1.582,2.613l-0.137,2.499l2.519,0.132l-0.66,11.737l1.046,3.325l-0.134,2.519
		l-1.918-0.122l-0.428,7.281l-0.825-0.012l-4.201-0.741l-0.201-0.079l-0.34-0.365l-3.755,0.173l-1.461-0.036l-0.219-0.551
		l-0.717-1.414l-1.251-2.043l-0.072-0.059l-0.949,0.173l-1.165,0.716l-0.526,0.41l-0.952-3.785l0.009-0.125l0.106-0.112l0.775-0.463
		l0.383,0.017l2.195-0.966l1.911-4.423l0.2-0.632l1.364-10.826l-0.155-2.935l-0.188-0.803l-0.765-1.858l-0.3-0.187l-0.282-1.043
		l-0.036-1.644l0.055-1l0.218-0.408l0.303-0.394L249.872,155.236"/>
	<path id="WA_Lincoln" inkscape:label="Lincoln, WA" fill="#999999" stroke="#FFFFFF" stroke-width="0.7892" d="M217.84,183.686
		l2.425-0.23l0.446,0.85l0.192,0.226l1.527,0.728l0.479-0.053l0.051-0.183l3.433,0.48l0.598,0.837l1.243,1.042l0.811,0.335
		l0.188,0.02l0.28-0.048l0.259-0.239l0.411-1.506l0.526-0.41l1.165-0.716l0.949-0.173l0.072,0.059l1.251,2.043l0.717,1.414
		l0.219,0.551l1.461,0.036l3.755-0.173l-1.021,16.284l-2.712-0.162l-20.239-1.361L217.84,183.686"/>
	<path id="WA_Adams" inkscape:label="Adams, WA" fill="#999999" stroke="#FFFFFF" stroke-width="0.7892" d="M236.565,204.697
		l-0.579,9.979l-0.323,1.365l-0.606,1.26l-0.444,0.717l-0.608,0.784l-3.924,0.624l-10.697-0.611l-8.345-0.678l-3.601-0.247
		l0.396-5.059l2.747,0.207l4.958,0.396l0.787-10.099L236.565,204.697"/>
	<path id="WA_Grant" inkscape:label="Grant, WA" fill="#999999" stroke="#FFFFFF" stroke-width="0.7892" d="M217.707,183.144
		l0.134,0.542l-1.515,19.649l-0.787,10.099l-4.958-0.396l-2.747-0.207l-0.396,5.059l-1.797,1.55l0.082-0.119l-0.05-0.186
		l-0.634-0.853l-0.265-0.231l-0.275-0.097l-0.149,0.088l-0.695,0.758l-0.511,0.624l-0.562,0.458l-0.489,0.281l-0.477,0.091
		l-3.635,0.152l-0.711-0.104l-0.173-0.062l-1.723-3.293l0.718-1.094l0.323-0.582l0.076-0.394l-0.488-3.855l-1.038-3.268l0.291-1.605
		l0.476-1.196l0.17-1.7l-0.019-0.171l-0.054-0.125l0.717-2.858l2.4-3.187l6.774,0.422l4.622-5.024l2.581-5.858l0.113-1.495
		l2.278-1.98L217.707,183.144"/>
	<path id="WA_Benton" inkscape:label="Benton, WA" fill="#999999" stroke="#FFFFFF" stroke-width="0.7892" d="M197.097,220.241
		l0.173,0.062l0.711,0.104l3.635-0.152l0.477-0.091l0.489-0.281l0.562-0.458l0.511-0.624l0.695-0.758l0.149-0.088l0.275,0.097
		l0.265,0.231l0.634,0.853l0.05,0.186l-0.082,0.119l0.031,0.354l0.786,1.576l0.627,0.945l1.068,1.063l0.822,0.932l0.156,0.911
		l-0.603,5.838l-0.07,0.259l0.06,0.157l1.147,1.162l0.657,0.269l0.591,0.084l0.492,0.164l1.466,0.963l0.696,5.666l-0.48,0.568
		l-0.396,0.263l-1.39,0.674l-0.692,0.231l-0.882,0.09l-0.533-0.041l-0.6-0.187l-3.075,0.105l-1.146,0.127l-1.143,0.123l-3.805,1.149
		l-2.116,0.161l-1.947,0.129l0.718-8.229l0.132-1.932l-0.088-0.8L197.097,220.241"/>
	<path id="WA_Klickitat" inkscape:label="Klickitat, WA" fill="#999999" stroke="#FFFFFF" stroke-width="0.7892" d="
		M195.879,237.247l-0.517,5.928l-2.756,0.475l-2.94,0.887l-0.613,0.271l-0.905,0.97l-3.988,0.44l-1.608-0.003l-0.456-0.198
		l-0.303-0.31l-0.688-0.89l-0.628-0.297l-0.889-0.063l-0.396,0.213l-0.791,0.56l-2.091,0.668l-1.716,0.575l-0.986,0.499l-0.53-0.497
		l-7.856-2.152l-0.716-0.021l-1.405,0.034l-1.568-0.947l0.267-1.572l-1.853-0.278l0.181-2.672l0.5-4.88l1.781,0.167l1.99,0.184
		l5.472,0.511l1.689,0.227l9.637,0.929L195.879,237.247"/>
	<path id="WA_Clark" inkscape:label="Clark, WA" fill="#999999" stroke="#FFFFFF" stroke-width="0.7892" d="M136.343,237.063
		l2.786-2.088l2.941-1.177l0.936-0.017l0.488,0.142l0.413,0.3l0.64,0.181l1.664-0.998l1.669-1.031l-0.438,4.233l-0.568,4.541
		l-0.614,5.84l-0.329,0.068l-0.04,0.007l-0.575-0.046l-0.02-0.008l-0.708-0.207l-6.147-2.468l-0.601-0.311l-1.205-0.896
		l-0.477-0.433l-0.141-0.699l0.102-0.553l0.304-0.796L136.343,237.063"/>
	<path id="WA_Cowlitz" inkscape:label="Cowlitz, WA" fill="#999999" stroke="#FFFFFF" stroke-width="0.7892" d="M148.976,222.823
		l-1.096,9.552l-1.669,1.031l-1.664,0.998l-0.64-0.181l-0.413-0.3l-0.488-0.142l-0.936,0.017l-2.941,1.177l-2.786,2.088l0.067-0.496
		l-0.289-2.756l-1.098-3.025l-0.32-0.721l-3.916-3.407l-1.01-0.229l-0.99,0.365l0.613-6.14l2.533,0.214l1.609,0.179l11.811,1.339
		L148.976,222.823"/>
	<path id="WA_Lewis" inkscape:label="Lewis, WA" fill="#999999" stroke="#FFFFFF" stroke-width="0.7892" d="M127.725,208.58
		l4.183,0.453l-0.102,0.844l4.598,0.537l14.502,1.619l3.254,0.934l4.064,0.724l0.258-0.354l0.723-0.65l0.238-0.174l0.373-0.167
		l6.063,0.594l1.024,1.753l0.235,0.836l-0.931,8.308l-0.207,0.592l-0.076,0.034l-0.146-0.005l-2.393-0.24l-14.411-1.395
		l-3.622-0.438l-11.811-1.339l-1.609-0.179l-2.533-0.214l-2.815-0.298l0.345-2.729l0.204-2.107l0.123-2.106L127.725,208.58"/>
	<path id="WA_Thurston" inkscape:label="Thurston, WA" fill="#999999" stroke="#FFFFFF" stroke-width="0.7892" d="M132.057,200.562
		l2.516,0.3l4.101-1.636l0.542-0.331l0.74-0.619l1.917,3.701l0.452,1.736l0.657,1.002l2.578,3.413l0.679,0.707l0.767,0.444
		l0.607,0.163l3.293,2.591l-14.502-1.619l-4.598-0.537l0.102-0.844L132.057,200.562"/>
	<path id="WA_Pierce" inkscape:label="Pierce, WA" fill="#999999" stroke="#FFFFFF" stroke-width="0.7892" d="M141.028,192.292
		l5.588,0.649l-0.384,1.242l2.106,1.337l1.466,1.8l5.422,3.274l1.791,0.639l2.406,0.444l0.046-0.103l0.605-0.434l0.139-0.085
		l0.114,0.001l0.252,0.027l2.861,0.859l1.52,1.038l2.545,1.252l0.722,0.123l-0.073,0.942l-2.494,3.853l0.399,3.447l-0.023,0.107
		l-0.156,0.232l-6.063-0.594l-0.373,0.167l-0.238,0.174l-0.723,0.65l-0.258,0.354l-4.064-0.724l-3.254-0.934l-3.293-2.591
		l-0.607-0.163l-0.767-0.444l-0.679-0.707l-2.578-3.413l-0.657-1.002l-0.452-1.736l-1.917-3.701l-0.418-1.766l0.005-0.154l0.105-0.4
		l0.146-0.23l0.368-0.322l0.324-0.386l0.241-0.526l0.143-0.9L141.028,192.292"/>
	<path id="WA_Yakima" inkscape:label="Yakima, WA" fill="#999999" stroke="#FFFFFF" stroke-width="0.7892" d="M168.227,204.358
		l1.962,0.125l0.463,0.242l2.012,1.851l0.819,0.982l0.035,0.086l0.152,0.644l0.816,1.45l0.295,0.34l7.804,0.7l0.361,2.522
		l1.695,2.711l7.216,0.697l3.517,0.239l1.723,3.293l-0.973,11.974l0.088,0.8l-0.132,1.932l-0.201,2.302l-14.685-1.244l-9.637-0.929
		l-1.689-0.227l-5.472-0.511l-1.99-0.184l0.98-9.937l2.393,0.24l0.146,0.005l0.076-0.034l0.207-0.592l0.931-8.308l-0.235-0.836
		l-1.024-1.753l0.156-0.232l0.023-0.107l-0.399-3.447l2.494-3.853L168.227,204.358"/>
	<path id="WA_Kittitas" inkscape:label="Kittitas, WA" fill="#999999" stroke="#FFFFFF" stroke-width="0.7892" d="M168.227,204.358
		l-0.16-1.302l-0.751-6.637l0.001-0.35l2.137-2.433l3.324-2.86l2.125-0.604l1.36,1.974l2.015,2.653l1.763,0.893l1.837,1.036
		l4.052,2.27l1.314,1.097l0.492,0.583l0.615,0.462l5.845,0.458l1.634,1.359l0.054,0.125l0.019,0.171l-0.17,1.7l-0.476,1.196
		l-0.291,1.605l1.038,3.268l0.488,3.855l-0.076,0.394l-0.323,0.582l-0.718,1.094l-3.517-0.239l-7.216-0.697l-1.695-2.711
		l-0.361-2.522l-7.804-0.7l-0.295-0.34l-0.816-1.45l-0.152-0.644l-0.035-0.086l-0.819-0.982l-2.012-1.851l-0.463-0.242
		L168.227,204.358"/>
	<path id="WA_Douglas" inkscape:label="Douglas, WA" fill="#999999" stroke="#FFFFFF" stroke-width="0.7892" d="M217.707,183.144
		l-2.391-0.168l-2.278,1.98l-0.113,1.495l-2.581,5.858l-4.622,5.024l-6.774-0.422l-2.4,3.187l-0.717,2.858l-1.634-1.359l0.133-0.424
		l0.132-0.725l0.135-0.891l-0.046-0.157l-0.798-0.862l-2.086-0.537l-0.316-0.11l-0.634-0.386l-0.121-0.226l-0.229-0.973
		l-0.119-0.693l0.069-0.433l0.387-1.354l2.174-6.059l0.227-0.359l0.16-0.15l0.261-0.157l1.194-0.37l0.259,0.067l0.296,0.217
		l0.128,0.143l0.14,0.028l1.862-0.373l1.917-2.65l1.122-1.749l-0.038-0.22l-0.13-0.33l-0.213-0.293l-0.028-0.098l-0.006-2.249
		l0.026-0.087l0.09-0.077l0.916-0.487l1.378-0.619l1.758,0.389l-0.147,1.48l1.519,0.967l5.289-0.675l1.881-1.408l2.049-1.095
		l0.413-0.112l1.308,0.457l0.381,0.417l0.193,0.287l1.364,2.899l-0.061,0.352l-0.264,0.572L217.707,183.144"/>
	<path id="WA_Ferry" inkscape:label="Ferry, WA" fill="#999999" stroke="#FFFFFF" stroke-width="0.7892" d="M222.652,153.531
		l12.372,0.827l-0.303,0.394l-0.218,0.408l-0.055,1l0.036,1.644l0.282,1.043l0.3,0.187l0.765,1.858l0.188,0.803l0.155,2.935
		l-1.364,10.826l-0.2,0.632l-1.911,4.423l-2.195,0.966l-0.383-0.017l-0.775,0.463l-0.106,0.112l-0.009,0.125l0.952,3.785
		l-0.411,1.506l-0.259,0.239l-0.28,0.048l-0.188-0.02l-0.811-0.335l-1.243-1.042l-0.598-0.837l-3.433-0.48l-0.051,0.183
		l-0.479,0.053l-1.527-0.728l-0.192-0.226l-0.446-0.85l0.127-0.166l0.916-12.646l-0.331-2.283l0.348-4.929l0.61-2.435l0.561-4.893
		L222.652,153.531"/>
	<path id="WA_San_Juan" inkscape:label="San Juan, WA" fill="#999999" stroke="#FFFFFF" stroke-width="0.7892" d="M142.363,162.848
		l-0.053-1.022l0.224-1.038l0.35-0.669l0.904-0.126l1.447-0.288l-0.166,0.708l-0.062,0.258l-0.727,2.239l-0.188,0.167l-1.218-0.017
		l-0.183-0.042L142.363,162.848 M139.193,156.722l0.216,1.489l0.82,1.467l0.688,1.49l-0.494,0.652l-0.614-0.326l-1.459-1.11
		l-0.382-0.41l-0.158-0.271l-0.185-0.474l-0.563-1.82l0.011-0.179l0.179-0.289l0.386-0.396l0.529,0.021L139.193,156.722
		 M145.323,157.037l-0.17,0.04l-0.379,0.374l-0.003,0.104l0.015,0.565l0.045,0.313l0.103,0.115l-3.577,0.915l-0.409-0.94
		l-0.528-1.395l-0.079-0.46l0.665-0.682l1.485-1.326l0.479-0.146l0.467,0.013l0.352,0.114l0.785,0.493l1.627,1.237l0.016,0.038
		l-0.292,0.286L145.323,157.037"/>
	<path id="WA_Island" inkscape:label="Island, WA" fill="#999999" stroke="#FFFFFF" stroke-width="0.7892" d="M147.743,164.025
		l0.087-0.098l0.166-0.11l0.145,0.068l0.086,0.13l0.189,0.328l1.116,2.281l0.146,0.316l0.009,0.287l-0.029,0.068l-0.368,0.32
		l-0.174,0.07l-0.406-0.023l-0.129-0.028l-0.275-0.405l-0.172-0.105l-0.298-0.043l-0.389,0.079l-0.172,0.132l-0.583,0.627
		l-0.4,0.666l-0.031,0.481l1.822,3.224l0.561,0.728l0.246-0.002l0.417,0.146l1.596,1.839l0.582,1.229l-0.046,0.863l-0.215,0.678
		l-0.612,0.632l-0.685,0.035l-2.437-3.306l-0.726-1.647l-0.631-1.314l-1.693-2.779l0.289-1.547l2.162-3.858l0.399-0.069
		L147.743,164.025"/>
	<path id="WA_Snohomish" inkscape:label="Snohomish, WA" fill="#999999" stroke="#FFFFFF" stroke-width="0.7892" d="M152.138,167.57
		l10.563,1.098l5.051,0.524l1.475,0.179l9.744,0.951l0.654,2.539l-0.063,1.619l-0.138,1.229l-1.504,0.794l-0.114,0.002l-1.422,0.368
		l-0.763,0.42l-0.982,3.159l0.155,2.509l0.489,1.95l-5.916-0.581l-0.705-0.014l-2.529-0.203l-9.632-0.952l-6.323-0.726l0.001-0.062
		l0.111-0.669l2.168-3.993l0.594-0.152l0.572-0.025l0.417-0.289l0.086-0.15l0.141-1.147l-0.087-0.399l-0.899-0.669l-1.074-1.506
		l-0.323-0.8l-0.02-0.049l0.09-0.739l0.094-0.654l-0.452-1.613l-0.122-0.711L152.138,167.57"/>
	<path id="WA_King" inkscape:label="King, WA" fill="#999999" stroke="#FFFFFF" stroke-width="0.7892" d="M175.285,184.911
		l0.674,1.213l-0.136,0.477l-0.981,1.251l-0.039,0.133l0.005,0.45l0.096,1.738l-2.125,0.604l-3.324,2.86l-2.137,2.433l-0.001,0.35
		l0.751,6.637l0.16,1.302l-0.722-0.123l-2.545-1.252l-1.52-1.038l-2.861-0.859l-0.252-0.027l-0.114-0.001l-0.139,0.085l-0.605,0.434
		l-0.046,0.103l-2.406-0.444l-1.791-0.639l-5.422-3.274l-1.466-1.8l1.671-0.423l0.258-0.177l0.119-1.238l-0.029-0.273l-0.399-2.385
		l-0.199-6.061l0.421-2.528l6.323,0.726l9.632,0.952l2.529,0.203l0.705,0.014L175.285,184.911"/>
	<path id="WA_Kitsap" inkscape:label="Kitsap, WA" fill="#999999" stroke="#FFFFFF" stroke-width="0.7892" d="M143.099,182.697
		l3.177-2.981l0.519-1.852l0.839,0.194l0.37,0.422l0.191,0.752l0.071,2.742l-0.591,5.681l-0.093,2.212l-0.967,3.075l-5.588-0.649
		l0.406-3.328l-2.957-0.408l-0.86-0.025l-0.873-0.1l0.227-0.356l1.275-1.646l0.105-0.101l0.395-0.171L143.099,182.697"/>
	<path id="WA_Mason" inkscape:label="Mason, WA" fill="#999999" stroke="#FFFFFF" stroke-width="0.7892" d="M127.548,187.427
		l0.311-2.559l10.887,1.289l-0.395,0.171l-0.105,0.101l-1.275,1.646l-0.227,0.356l0.873,0.1l0.86,0.025l2.957,0.408l-0.564,4.626
		l-0.143,0.9l-0.241,0.526l-0.324,0.386l-0.368,0.322l-0.146,0.23l-0.105,0.4l-0.005,0.154l0.418,1.766l-0.74,0.619l-0.542,0.331
		l-4.101,1.636l-2.516-0.3l-5.587-0.584l-0.107-0.023l0.27-5.08L127.548,187.427"/>
	<path id="WA_Grays_Harbor" inkscape:label="Grays Harbor, WA" fill="#999999" stroke="#FFFFFF" stroke-width="0.7892" d="
		M110.9,184.901l4.469,0.56l1.503,0.649l10.677,1.317l-0.916,7.447l-0.27,5.08l0.107,0.023l5.587,0.584l-0.149,8.472l-4.183-0.453
		l-4.705-0.613l-4.969-0.526l-4.799-0.682l-0.179-2.525l0.662-0.537l0.912,0.328l3.41-0.917l0.453-0.181l0.027-0.017l-0.274-0.396
		l-2.734-2.354l-0.743-0.408l-0.797-0.15l-3.073-9.516l-0.052-0.353l-0.068-1.421L110.9,184.901"/>
	<path id="WA_Jefferson" inkscape:label="Jefferson, WA" fill="#999999" stroke="#FFFFFF" stroke-width="0.7892" d="
		M107.147,174.306l3.374,0.368l1.211,0.203l4.896,0.643l7.34,0.891l3.125,0.526l1.546,0.475l10.994,1.263l0.694-6.627l2.433-0.78
		l0.988-0.139l0.46,0.045l1.298,1.355l0.061,5.392l-2.218,3.104l-0.329,1.212l-0.047,0.326l0.127,0.134l-4.354,3.461l-10.887-1.289
		l-0.311,2.559l-10.677-1.317l-1.503-0.649l-4.469-0.56l0.004-0.351l-0.082-1.183l-0.122-1.372l-0.449-3.141l-0.072-0.243
		l-0.9-2.177l-0.144-0.182l-1.09-1.411l-0.023-0.017l-0.036-0.035l-0.399-0.343L107.147,174.306"/>
	<path id="WA_Clallam" inkscape:label="Clallam, WA" fill="#999999" stroke="#FFFFFF" stroke-width="0.7892" d="M107.147,174.306
		l-0.304-0.516l-0.48-2.547l-0.348-5.013l0.669-6.542l0.132-0.124l0.181-0.083l1.243,0.136l0.76,0.469l0.704,0.435l0.859,0.616
		l0.272,0.2l1.715,1.457l6.618,4.419l1.308,0.536l2.19,0.563l8.5,2.095l4.078,0.215l2.916,0.527l2.166,0.897l-0.694,6.627
		l-10.994-1.263l-1.546-0.475l-3.125-0.526l-7.34-0.891l-4.896-0.643l-1.211-0.203L107.147,174.306"/>
	<path id="WA_Skagit" inkscape:label="Skagit, WA" fill="#999999" stroke="#FFFFFF" stroke-width="0.7892" d="M184.778,160.381
		l0.656,3.702l-3.065-0.669l-1.767,0.274l-2.032,1.072l-0.162,0.202l-0.174,0.547l-0.45,3.842l1.188,0.97l-9.744-0.951l-1.475-0.179
		l-5.051-0.524l-10.563-1.098l-0.505-0.884l-1.364-4.044l0.588-0.225l0.046-0.04l1.256-3.548l-0.38-0.708l-0.67-0.646l0.43-0.032
		l6.72,0.689l16.783,1.821l6.613,0.625l1.055-0.223L184.778,160.381"/>
	<path id="WA_Chelan" inkscape:label="Chelan, WA" fill="#999999" stroke="#FFFFFF" stroke-width="0.7892" d="M185.434,164.083
		l0.733,0.008l0.132,0.339l1.322,4.331l3.789,5.596l4.968,6.86l1.835,0.476l2.06,0.172l0.13,0.33l0.038,0.22l-1.122,1.749
		l-1.917,2.65l-1.862,0.373l-0.14-0.028l-0.128-0.143l-0.296-0.217l-0.259-0.067l-1.194,0.37l-0.261,0.157l-0.16,0.15l-0.227,0.359
		l-2.174,6.059l-0.387,1.354l-0.069,0.433l0.119,0.693l0.229,0.973l0.121,0.226l0.634,0.386l0.316,0.11l2.086,0.537l0.798,0.862
		l0.046,0.157l-0.135,0.891l-0.132,0.725l-0.133,0.424l-5.845-0.458l-0.615-0.462l-0.492-0.583l-1.314-1.097l-4.052-2.27
		l-1.837-1.036l-1.763-0.893l-2.015-2.653l-1.36-1.974l-0.096-1.738l-0.005-0.45l0.039-0.133l0.981-1.251l0.136-0.477l-0.674-1.213
		l-0.489-1.95l-0.155-2.509l0.982-3.159l0.763-0.42l1.422-0.368l0.114-0.002l1.504-0.794l0.138-1.229l0.063-1.619l-0.654-2.539
		l-1.188-0.97l0.45-3.842l0.174-0.547l0.162-0.202l2.032-1.072l1.767-0.274L185.434,164.083"/>
	<path id="WA_Skamania" inkscape:label="Skamania, WA" fill="#999999" stroke="#FFFFFF" stroke-width="0.7892" d="M163.387,224.217
		l-0.98,9.937l-1.781-0.167l-0.5,4.88l-0.181,2.672l1.853,0.278l-0.267,1.572l-2.158,0.33l-1.676,0.156l-0.564-0.038l-1.511-0.522
		l-1.171,0.272l-0.775,0.587l-0.476,0.599l-6.94,2.216l0.614-5.84l0.568-4.541l0.438-4.233l1.096-9.552L163.387,224.217"/>
	<path id="WA_Pacific" inkscape:label="Pacific, WA" fill="#999999" stroke="#FFFFFF" stroke-width="0.7892" d="M113.252,206.759
		l4.799,0.682l4.969,0.526l4.705,0.613l-0.468,4.832l-0.123,2.106l-0.204,2.107l-0.345,2.729l-2.869-0.32l-4.489-0.608l-0.37,2.754
		l-3.146,1.08l-0.651-0.25l-2.82-2.731l0.746-4.769l0.515,0.952l0.478,0.145l0.228-0.06l0.992-0.285l1.094-1.197l0.104-0.4
		l0.489-4.23l-0.2-1.707l-1.544,0.8l-0.332,0.109l-0.35-0.237l-1.083-0.897l-0.13-0.152l-0.061-0.063l-0.077-0.14L113.252,206.759"
		/>
</g>
</svg>
